<?xml version="1.0" encoding="UTF-8"?>
<svg width="3000px" height="3162px" viewBox="0 0 3000 3162" version="1.1" xmlns="http://www.w3.org/2000/svg" xmlns:xlink="http://www.w3.org/1999/xlink">
    <title>as-logo-vert-tag-colour</title>
    <g id="as-logo-vert-tag-colour" stroke="none" fill="none" fill-rule="evenodd" stroke-width="1">
        <g id="Group" fill="#2C3233">
            <path d="M500.068,1437.13 L500.068,1495.72 L1115.2,1660.7 C1129.25,1664.45 1142.68,1666.16 1155.91,1665.68 C1169.08,1665.27 1182.38,1662.68 1196.15,1657.97 L2500,1215.34 L2500,1175.23 L2391.08,1175.23 C2374.64,1175.23 2358.55,1173.32 2342.65,1169.09 C2326.83,1164.87 2311.89,1158.32 2297.71,1150.13 L1985.81,970.078 L1624.54,1331.35 C1595.35,1360.54 1557.84,1379.5 1516.85,1384.89 C1475.86,1390.28 1434.8,1381.61 1399.06,1361.02 L1081.16,1177.48 C1061.11,1165.89 1038.74,1159.41 1015.55,1159.41 C992.293,1159.41 969.99,1165.89 949.938,1177.48 L508.184,1432.49 L500.204,1437.13 L500.068,1437.13 Z" id="Path"></path>
            <path d="M500.068,1553.42 L500.068,1583.7 C500.068,1642.08 528.986,1692.21 579.593,1721.4 L1420.54,2206.94 C1471.08,2236.13 1528.99,2236.13 1579.53,2206.94 L2420.47,1721.4 C2471.01,1692.21 2500,1642.08 2500,1583.7 L2500,1274.26 L2483.97,1279.72 L1214.02,1710.9 C1195.74,1717.11 1176.99,1720.79 1157.69,1721.47 C1138.38,1722.08 1119.42,1719.7 1100.8,1714.65 L516.096,1557.78 L500.068,1553.49 L500.068,1553.42 Z" id="Path"></path>
            <path d="M500.068,1167.25 L500.068,1372.95 L508.048,1368.31 L922.043,1129.26 C950.552,1112.76 982.403,1103.55 1015.41,1103.55 C1048.42,1103.55 1080.21,1112.76 1108.78,1129.26 L1426.68,1312.8 C1451.85,1327.32 1480.7,1333.53 1509.55,1329.71 C1538.33,1325.89 1564.59,1312.39 1585.05,1291.93 L1935.75,941.227 L1941.62,935.362 L1569.64,720.591 C1547.47,707.837 1523.73,701.426 1500,701.426 C1476.27,701.426 1452.53,707.837 1430.36,720.591 L698.336,1143.18 C684.081,1151.43 669.963,1157.43 655.299,1161.32 C640.499,1165.27 625.222,1167.18 608.989,1167.18 L500,1167.18 L500.068,1167.25 Z" id="Path"></path>
            <path d="M1420.47,21.9166 L579.525,507.453 C528.987,536.644 500,586.773 500,645.155 L500,1111.53 L608.989,1111.53 C619.765,1111.53 630.473,1110.37 640.908,1107.57 C651.344,1104.77 661.233,1100.48 670.577,1095.09 L1402.61,672.505 C1432.34,655.317 1465.56,645.769 1500,645.769 C1534.44,645.769 1567.59,655.317 1597.39,672.505 L2329.42,1095.09 C2338.77,1100.48 2348.66,1104.77 2359.09,1107.57 C2369.53,1110.37 2380.23,1111.53 2391.01,1111.53 L2499.93,1111.53 L2499.93,645.155 C2499.93,586.773 2471.01,536.644 2420.41,507.453 L1579.46,21.9166 C1528.92,-7.27428 1471.01,-7.27428 1420.47,21.9166 Z" id="Path"></path>
            <path d="M0,2825.86 L0,2608.97 C0,2599.54 2.31198,2590.79 6.93594,2582.92 C11.6279,2574.98 17.8839,2568.74 25.8398,2564.06 C33.7957,2559.37 42.5677,2557 52.0876,2557 L217.054,2557 C226.574,2557 235.346,2559.37 243.234,2564.06 C251.122,2568.74 257.446,2574.98 262.274,2582.92 C267.102,2590.79 269.482,2599.54 269.482,2608.97 L269.482,2825.86 L219.502,2825.86 L219.502,2735.63 L49.3676,2735.63 L49.3676,2825.86 L0,2825.86 Z M49.3676,2686.11 L219.502,2686.11 L219.502,2611.14 C219.502,2609.99 219.094,2608.9 218.142,2607.95 C217.326,2607 216.306,2606.59 215.014,2606.59 L53.9236,2606.59 C52.7676,2606.59 51.6796,2607 50.7276,2607.95 C49.7756,2608.9 49.3676,2609.92 49.3676,2611.14 L49.3676,2686.11 Z M386.441,2825.86 C376.921,2825.86 368.149,2823.49 360.261,2818.81 C352.373,2814.13 346.049,2807.89 341.357,2799.95 C336.665,2792.08 334.285,2783.33 334.285,2773.83 L334.285,2557 L383.721,2557 L383.721,2771.79 C383.721,2773.01 384.129,2774.1 385.013,2775.05 C385.965,2776 386.985,2776.41 388.277,2776.41 L549.368,2776.41 C550.592,2776.41 551.68,2776 552.564,2775.05 C553.516,2774.1 553.924,2773.08 553.924,2771.79 L553.924,2557 L603.835,2557 L603.835,2773.83 C603.835,2783.33 601.455,2792.08 596.627,2799.95 C591.867,2807.89 585.611,2814.13 577.655,2818.81 C569.767,2823.49 561.132,2825.86 551.68,2825.86 L386.441,2825.86 Z M718.89,2825.86 C709.438,2825.86 700.666,2823.49 692.711,2818.81 C684.755,2814.13 678.499,2807.89 673.807,2799.95 C669.115,2792.08 666.735,2783.33 666.735,2773.83 L666.735,2753.34 L716.17,2753.34 L716.17,2771.79 C716.17,2773.01 716.578,2774.1 717.462,2775.05 C718.414,2776 719.434,2776.41 720.794,2776.41 L881.817,2776.41 C883.041,2776.41 884.129,2776 885.013,2775.05 C885.965,2774.1 886.373,2773.08 886.373,2771.79 L886.373,2720.71 C886.373,2719.49 885.965,2718.4 885.013,2717.59 C884.129,2716.7 883.109,2716.3 881.817,2716.3 L718.958,2716.3 C709.506,2716.3 700.734,2713.92 692.778,2709.24 C684.823,2704.49 678.567,2698.25 673.875,2690.38 C669.183,2682.51 666.803,2673.83 666.803,2664.26 L666.803,2608.97 C666.803,2599.54 669.183,2590.79 673.875,2582.92 C678.567,2574.98 684.823,2568.74 692.778,2564.06 C700.734,2559.37 709.506,2557 718.958,2557 L884.197,2557 C893.649,2557 902.285,2559.37 910.173,2564.06 C918.061,2568.74 924.385,2574.98 929.145,2582.92 C933.973,2590.79 936.285,2599.54 936.285,2608.97 L936.285,2629.52 L886.373,2629.52 L886.373,2611.07 C886.373,2609.92 885.965,2608.83 885.013,2607.88 C884.129,2606.93 883.109,2606.53 881.817,2606.53 L720.794,2606.53 C719.502,2606.53 718.414,2606.93 717.462,2607.88 C716.578,2608.83 716.17,2609.85 716.17,2611.07 L716.17,2662.23 C716.17,2663.38 716.578,2664.46 717.462,2665.28 C718.414,2666.16 719.434,2666.57 720.794,2666.57 L884.197,2666.57 C893.649,2666.57 902.285,2668.94 910.173,2673.69 C918.061,2678.37 924.385,2684.61 929.145,2692.48 C933.973,2700.35 936.285,2709.04 936.285,2718.6 L936.285,2773.83 C936.285,2783.33 933.905,2792.08 929.145,2799.95 C924.385,2807.89 918.129,2814.13 910.173,2818.81 C902.285,2823.49 893.649,2825.86 884.197,2825.86 L718.958,2825.86 L718.89,2825.86 Z M999.864,2825.86 L999.864,2557.41 L1216.99,2557.41 C1226.44,2557.41 1235.21,2559.78 1243.1,2564.53 C1251.05,2569.21 1257.45,2575.52 1262.21,2583.53 C1266.97,2591.46 1269.35,2600.08 1269.35,2609.51 L1269.35,2681.83 C1269.35,2691.26 1266.97,2699.95 1262.21,2707.88 C1257.45,2715.82 1251.12,2722.06 1243.1,2726.88 C1235.21,2731.56 1226.44,2733.94 1216.99,2733.94 L1049.3,2734.21 L1049.3,2826 L999.864,2826 L999.864,2825.86 Z M1053.86,2684.07 L1215.01,2684.07 C1216.17,2684.07 1217.26,2683.66 1218.07,2682.85 C1219.03,2681.97 1219.43,2680.95 1219.43,2679.73 L1219.43,2611.14 C1219.43,2609.99 1219.03,2608.9 1218.07,2608.02 C1217.26,2607.14 1216.17,2606.73 1215.01,2606.73 L1053.86,2606.73 C1052.56,2606.73 1051.48,2607.14 1050.52,2608.02 C1049.71,2608.9 1049.3,2609.92 1049.3,2611.14 L1049.3,2679.73 C1049.3,2680.88 1049.71,2681.97 1050.52,2682.85 C1051.48,2683.66 1052.5,2684.07 1053.86,2684.07 Z M1320.89,2825.86 L1320.89,2608.97 C1320.89,2599.54 1323.2,2590.79 1327.83,2582.92 C1332.52,2574.98 1338.77,2568.74 1346.73,2564.06 C1354.69,2559.37 1363.46,2557 1372.98,2557 L1537.94,2557 C1547.46,2557 1556.24,2559.37 1564.12,2564.06 C1572.01,2568.74 1578.34,2574.98 1583.16,2582.92 C1587.99,2590.79 1590.37,2599.54 1590.37,2608.97 L1590.37,2825.86 L1540.39,2825.86 L1540.39,2735.63 L1370.26,2735.63 L1370.26,2825.86 L1320.89,2825.86 Z M1370.26,2686.11 L1540.39,2686.11 L1540.39,2611.14 C1540.39,2609.99 1539.98,2608.9 1539.03,2607.95 C1538.22,2607 1537.2,2606.59 1535.9,2606.59 L1374.81,2606.59 C1373.66,2606.59 1372.57,2607 1371.62,2607.95 C1370.67,2608.9 1370.26,2609.92 1370.26,2611.14 L1370.26,2686.11 Z M1752.35,2825.86 L1752.35,2606.53 L1642.46,2606.53 L1642.46,2557 L1911.94,2557 L1911.94,2606.53 L1802.12,2606.53 L1802.12,2825.86 L1752.41,2825.86 L1752.35,2825.86 Z M1957.64,2825.86 L1957.64,2557 L2006.6,2557 L2006.6,2825.86 L1957.64,2825.86 Z M2117.3,2825.86 C2107.78,2825.86 2099.01,2823.49 2091.12,2818.81 C2083.23,2814.13 2076.91,2807.89 2072.22,2799.95 C2067.52,2792.08 2065.14,2783.33 2065.14,2773.83 L2065.14,2608.97 C2065.14,2599.54 2067.52,2590.79 2072.22,2582.92 C2076.91,2574.98 2083.16,2568.74 2091.12,2564.06 C2099.01,2559.37 2107.78,2557 2117.3,2557 L2282.54,2557 C2291.92,2557 2300.63,2559.37 2308.51,2564.06 C2316.4,2568.74 2322.73,2574.98 2327.49,2582.92 C2332.31,2590.79 2334.69,2599.54 2334.69,2608.97 L2334.69,2773.83 C2334.69,2783.33 2332.31,2792.08 2327.49,2799.95 C2322.73,2807.89 2316.47,2814.13 2308.51,2818.81 C2300.63,2823.49 2291.99,2825.86 2282.54,2825.86 L2117.3,2825.86 Z M2119.14,2776.41 L2280.23,2776.41 C2281.45,2776.41 2282.54,2776 2283.42,2775.05 C2284.37,2774.1 2284.78,2773.08 2284.78,2771.79 L2284.78,2611.07 C2284.78,2609.92 2284.37,2608.83 2283.42,2607.88 C2282.54,2606.93 2281.52,2606.53 2280.23,2606.53 L2119.14,2606.53 C2117.91,2606.53 2116.82,2606.93 2115.87,2607.88 C2114.99,2608.83 2114.58,2609.85 2114.58,2611.07 L2114.58,2771.79 C2114.58,2773.01 2114.99,2774.1 2115.87,2775.05 C2116.82,2776 2117.84,2776.41 2119.14,2776.41 Z M2450.16,2825.86 C2440.64,2825.86 2431.86,2823.49 2423.98,2818.81 C2416.09,2814.13 2409.76,2807.89 2405.07,2799.95 C2400.38,2792.08 2398,2783.33 2398,2773.83 L2398,2557 L2447.44,2557 L2447.44,2771.79 C2447.44,2773.01 2447.84,2774.1 2448.73,2775.05 C2449.68,2776 2450.7,2776.41 2451.99,2776.41 L2613.08,2776.41 C2614.31,2776.41 2615.4,2776 2616.28,2775.05 C2617.23,2774.1 2617.64,2773.08 2617.64,2771.79 L2617.64,2557 L2667.55,2557 L2667.55,2773.83 C2667.55,2783.33 2665.17,2792.08 2660.34,2799.95 C2655.58,2807.89 2649.33,2814.13 2641.37,2818.81 C2633.48,2823.49 2624.85,2825.86 2615.4,2825.86 L2450.16,2825.86 Z M2782.61,2825.86 C2773.15,2825.86 2764.38,2823.49 2756.43,2818.81 C2748.47,2814.13 2742.21,2807.89 2737.52,2799.95 C2732.83,2792.08 2730.45,2783.33 2730.45,2773.83 L2730.45,2753.34 L2779.89,2753.34 L2779.89,2771.79 C2779.89,2773.01 2780.29,2774.1 2781.18,2775.05 C2782.13,2776 2783.15,2776.41 2784.51,2776.41 L2945.53,2776.41 C2946.76,2776.41 2947.84,2776 2948.73,2775.05 C2949.68,2774.1 2950.09,2773.08 2950.09,2771.79 L2950.09,2720.71 C2950.09,2719.49 2949.68,2718.4 2948.73,2717.59 C2947.84,2716.7 2946.82,2716.3 2945.53,2716.3 L2782.67,2716.3 C2773.22,2716.3 2764.45,2713.92 2756.49,2709.24 C2748.54,2704.49 2742.28,2698.25 2737.59,2690.38 C2732.9,2682.51 2730.52,2673.83 2730.52,2664.26 L2730.52,2608.97 C2730.52,2599.54 2732.9,2590.79 2737.59,2582.92 C2742.28,2574.98 2748.54,2568.74 2756.49,2564.06 C2764.45,2559.37 2773.22,2557 2782.67,2557 L2947.91,2557 C2957.36,2557 2966,2559.37 2973.89,2564.06 C2981.78,2568.74 2988.1,2574.98 2992.86,2582.92 C2997.69,2590.79 3000,2599.54 3000,2608.97 L3000,2629.52 L2950.09,2629.52 L2950.09,2611.07 C2950.09,2609.92 2949.68,2608.83 2948.73,2607.88 C2947.84,2606.93 2946.82,2606.53 2945.53,2606.53 L2784.51,2606.53 C2783.22,2606.53 2782.13,2606.93 2781.18,2607.88 C2780.29,2608.83 2779.89,2609.85 2779.89,2611.07 L2779.89,2662.23 C2779.89,2663.38 2780.29,2664.46 2781.18,2665.28 C2782.13,2666.16 2783.15,2666.57 2784.51,2666.57 L2947.91,2666.57 C2957.36,2666.57 2966,2668.94 2973.89,2673.69 C2981.78,2678.37 2988.1,2684.61 2992.86,2692.48 C2997.69,2700.35 3000,2709.04 3000,2718.6 L3000,2773.83 C3000,2783.33 2997.62,2792.08 2992.86,2799.95 C2988.1,2807.89 2981.84,2814.13 2973.89,2818.81 C2966,2823.49 2957.36,2825.86 2947.91,2825.86 L2782.67,2825.86 L2782.61,2825.86 Z" id="Shape" fill-rule="nonzero"></path>
            <path d="M2910.38,3010.67 L2920.57,3010.67 L2945.71,3076.39 C2947.23,3080.26 2948.57,3083.85 2949.71,3087.15 C2950.92,3090.39 2951.97,3093.37 2952.85,3096.1 C2953.74,3098.77 2954.47,3101.22 2955.04,3103.44 L2955.62,3103.44 C2956.57,3100.52 2957.84,3096.77 2959.43,3092.2 C2961.01,3087.56 2962.82,3082.42 2964.85,3076.77 L2989.71,3010.67 L3000,3010.67 L2952.76,3133.63 C2950.47,3139.6 2947.96,3144.65 2945.23,3148.77 C2942.5,3152.96 2939.3,3156.11 2935.61,3158.2 C2931.93,3160.36 2927.49,3161.44 2922.28,3161.44 C2919.93,3161.44 2917.8,3161.25 2915.9,3160.87 C2913.99,3160.55 2912.15,3160.11 2910.38,3159.54 L2910.38,3151.25 C2912.03,3151.76 2913.71,3152.17 2915.42,3152.49 C2917.2,3152.87 2919.14,3153.06 2921.23,3153.06 C2924.85,3153.06 2927.96,3152.3 2930.57,3150.77 C2933.23,3149.31 2935.61,3147.03 2937.71,3143.92 C2939.81,3140.81 2941.77,3136.84 2943.62,3132.01 L2950.66,3113.63 L2910.38,3010.67 Z" id="Path" fill-rule="nonzero"></path>
            <path d="M2857.8,3008.67 C2869.42,3008.67 2878.34,3011.72 2884.56,3017.81 C2890.79,3023.91 2893.9,3033.47 2893.9,3046.48 L2893.9,3114.2 L2884.37,3114.2 L2884.37,3047.05 C2884.37,3036.77 2882.02,3029.21 2877.33,3024.39 C2872.63,3019.56 2865.8,3017.15 2856.85,3017.15 C2845.48,3017.15 2836.78,3020.48 2830.75,3027.15 C2824.78,3033.75 2821.8,3043.75 2821.8,3057.15 L2821.8,3114.2 L2812.18,3114.2 L2812.18,3010.67 L2819.99,3010.67 L2821.42,3029.53 L2821.99,3029.53 C2823.83,3025.66 2826.34,3022.16 2829.51,3019.05 C2832.75,3015.88 2836.72,3013.37 2841.42,3011.53 C2846.12,3009.62 2851.58,3008.67 2857.8,3008.67 Z" id="Path" fill-rule="nonzero"></path>
            <path d="M2744.94,3008.86 C2756.3,3008.86 2764.81,3011.72 2770.46,3017.43 C2776.11,3023.15 2778.94,3032.26 2778.94,3044.77 L2778.94,3114.2 L2771.51,3114.2 L2769.79,3096.1 L2769.22,3096.1 C2767,3099.98 2764.3,3103.44 2761.13,3106.48 C2757.95,3109.47 2754.05,3111.82 2749.41,3113.53 C2744.84,3115.25 2739.25,3116.1 2732.65,3116.1 C2725.98,3116.1 2720.27,3114.99 2715.51,3112.77 C2710.81,3110.55 2707.16,3107.31 2704.55,3103.06 C2702.01,3098.8 2700.74,3093.63 2700.74,3087.53 C2700.74,3077.24 2705,3069.43 2713.51,3064.1 C2722.01,3058.7 2734.24,3055.66 2750.17,3054.96 L2769.41,3054.01 L2769.41,3046.48 C2769.41,3035.88 2767.32,3028.32 2763.13,3023.81 C2758.94,3019.3 2752.75,3017.05 2744.56,3017.05 C2739.22,3017.05 2734.08,3017.75 2729.13,3019.15 C2724.24,3020.48 2719.25,3022.42 2714.17,3024.96 L2711.12,3016.96 C2716.08,3014.61 2721.38,3012.67 2727.03,3011.15 C2732.74,3009.62 2738.71,3008.86 2744.94,3008.86 Z M2769.32,3061.53 L2751.22,3062.29 C2738.08,3062.93 2728.08,3065.28 2721.22,3069.34 C2714.36,3073.4 2710.93,3079.5 2710.93,3087.63 C2710.93,3094.17 2712.97,3099.18 2717.03,3102.67 C2721.16,3106.17 2726.87,3107.91 2734.17,3107.91 C2745.54,3107.91 2754.21,3104.67 2760.18,3098.2 C2766.21,3091.72 2769.26,3082.9 2769.32,3071.72 L2769.32,3061.53 Z" id="Shape" fill-rule="nonzero"></path>
            <path d="M2638.45,3008.67 C2651.79,3008.67 2662.11,3013.15 2669.41,3022.1 C2676.77,3031.05 2680.46,3044.26 2680.46,3061.72 C2680.46,3073.4 2678.71,3083.31 2675.22,3091.44 C2671.73,3099.5 2666.74,3105.63 2660.26,3109.82 C2653.85,3114.01 2646.14,3116.11 2637.12,3116.11 C2630.9,3116.11 2625.47,3115.18 2620.83,3113.34 C2616.26,3111.44 2612.45,3108.9 2609.4,3105.72 C2606.36,3102.49 2604.01,3098.93 2602.36,3095.06 L2601.69,3095.06 C2601.88,3098.68 2602.04,3102.45 2602.17,3106.39 C2602.29,3110.33 2602.36,3114.04 2602.36,3117.53 L2602.36,3160.01 L2592.64,3160.01 L2592.64,3010.67 L2600.64,3010.67 L2601.78,3031.34 L2602.36,3031.34 C2604.07,3027.4 2606.48,3023.69 2609.59,3020.19 C2612.71,3016.7 2616.64,3013.91 2621.4,3011.81 C2626.17,3009.72 2631.85,3008.67 2638.45,3008.67 Z M2637.22,3017.15 C2629.41,3017.15 2622.9,3018.86 2617.69,3022.29 C2612.55,3025.66 2608.71,3030.61 2606.17,3037.15 C2603.69,3043.62 2602.42,3051.56 2602.36,3060.96 L2602.36,3062.58 C2602.36,3072.67 2603.59,3081.09 2606.07,3087.82 C2608.61,3094.48 2612.39,3099.47 2617.4,3102.77 C2622.48,3106.07 2628.77,3107.72 2636.26,3107.72 C2643.63,3107.72 2649.85,3105.91 2654.93,3102.29 C2660.01,3098.68 2663.88,3093.44 2666.55,3086.58 C2669.22,3079.72 2670.55,3071.4 2670.55,3061.63 C2670.55,3047.09 2667.76,3036.04 2662.17,3028.48 C2656.64,3020.92 2648.33,3017.15 2637.22,3017.15 Z" id="Shape" fill-rule="nonzero"></path>
            <path d="M2527.02,3008.67 C2536.99,3008.67 2544.86,3011.56 2550.64,3017.34 C2556.42,3023.12 2559.31,3032.23 2559.31,3044.67 L2559.31,3114.2 L2549.88,3114.2 L2549.88,3045.05 C2549.88,3035.47 2547.69,3028.42 2543.3,3023.91 C2538.92,3019.4 2533.14,3017.15 2525.97,3017.15 C2516.13,3017.15 2508.41,3020.04 2502.83,3025.81 C2497.3,3031.53 2494.54,3040.54 2494.54,3052.86 L2494.54,3114.2 L2485.01,3114.2 L2485.01,3045.05 C2485.01,3038.64 2484,3033.4 2481.97,3029.34 C2480,3025.21 2477.24,3022.16 2473.68,3020.19 C2470.12,3018.16 2465.93,3017.15 2461.11,3017.15 C2454.7,3017.15 2449.14,3018.48 2444.44,3021.15 C2439.74,3023.75 2436.12,3027.81 2433.58,3033.34 C2431.04,3038.8 2429.77,3045.75 2429.77,3054.2 L2429.77,3114.2 L2420.15,3114.2 L2420.15,3010.67 L2427.96,3010.67 L2429.39,3027.62 L2429.96,3027.62 C2431.68,3024.26 2433.96,3021.15 2436.82,3018.29 C2439.68,3015.43 2443.2,3013.11 2447.39,3011.34 C2451.65,3009.56 2456.63,3008.67 2462.35,3008.67 C2469.78,3008.67 2476.06,3010.35 2481.21,3013.72 C2486.41,3017.02 2490.03,3021.94 2492.06,3028.48 L2492.73,3028.48 C2495.52,3022.26 2499.84,3017.4 2505.68,3013.91 C2511.59,3010.42 2518.7,3008.67 2527.02,3008.67 Z" id="Path" fill-rule="nonzero"></path>
            <path d="M2391.58,3062.29 C2391.58,3070.29 2390.6,3077.59 2388.63,3084.2 C2386.66,3090.74 2383.74,3096.39 2379.87,3101.15 C2375.99,3105.91 2371.17,3109.6 2365.39,3112.2 C2359.67,3114.8 2353.01,3116.11 2345.39,3116.11 C2338.15,3116.11 2331.7,3114.84 2326.05,3112.3 C2320.4,3109.69 2315.61,3106.01 2311.67,3101.25 C2307.8,3096.49 2304.84,3090.83 2302.81,3084.29 C2300.78,3077.69 2299.77,3070.36 2299.77,3062.29 C2299.77,3051.18 2301.61,3041.62 2305.29,3033.62 C2309.04,3025.56 2314.37,3019.4 2321.29,3015.15 C2328.27,3010.83 2336.62,3008.67 2346.34,3008.67 C2356.37,3008.67 2364.72,3010.96 2371.39,3015.53 C2378.12,3020.04 2383.17,3026.32 2386.53,3034.39 C2389.9,3042.45 2391.58,3051.75 2391.58,3062.29 Z M2309.67,3062.29 C2309.67,3071.37 2310.97,3079.31 2313.58,3086.1 C2316.18,3092.9 2320.12,3098.2 2325.39,3102.01 C2330.72,3105.82 2337.45,3107.72 2345.58,3107.72 C2353.9,3107.72 2360.72,3105.82 2366.06,3102.01 C2371.39,3098.2 2375.33,3092.87 2377.87,3086.01 C2380.41,3079.15 2381.68,3071.25 2381.68,3062.29 C2381.68,3053.59 2380.47,3045.85 2378.06,3039.05 C2375.64,3032.26 2371.83,3026.93 2366.63,3023.05 C2361.42,3019.12 2354.63,3017.15 2346.24,3017.15 C2334.24,3017.15 2325.13,3021.15 2318.91,3029.15 C2312.75,3037.15 2309.67,3048.2 2309.67,3062.29 Z" id="Shape" fill-rule="nonzero"></path>
            <path d="M2254.43,3116.11 C2244.14,3116.11 2235.44,3113.98 2228.33,3109.72 C2221.28,3105.41 2215.95,3099.28 2212.33,3091.34 C2208.78,3083.34 2207,3073.88 2207,3062.96 C2207,3051.59 2209.06,3041.88 2213.19,3033.81 C2217.32,3025.69 2223.13,3019.46 2230.62,3015.15 C2238.11,3010.83 2246.9,3008.67 2257,3008.67 C2261.95,3008.67 2266.56,3009.11 2270.81,3010 C2275.07,3010.89 2278.91,3012.13 2282.34,3013.72 L2279.76,3022.19 C2276.21,3020.61 2272.43,3019.4 2268.43,3018.58 C2264.43,3017.75 2260.59,3017.34 2256.91,3017.34 C2248.4,3017.34 2241.16,3019.21 2235.19,3022.96 C2229.28,3026.64 2224.74,3031.91 2221.57,3038.77 C2218.46,3045.56 2216.9,3053.59 2216.9,3062.86 C2216.9,3071.56 2218.24,3079.28 2220.9,3086.01 C2223.57,3092.68 2227.67,3097.95 2233.19,3101.82 C2238.71,3105.63 2245.79,3107.53 2254.43,3107.53 C2259.45,3107.53 2264.21,3107.03 2268.72,3106.01 C2273.29,3104.99 2277.45,3103.69 2281.19,3102.1 L2281.19,3110.87 C2277.83,3112.39 2273.92,3113.63 2269.48,3114.58 C2265.1,3115.6 2260.08,3116.11 2254.43,3116.11 Z" id="Path" fill-rule="nonzero"></path>
            <polygon id="Path" fill-rule="nonzero" points="2127.85 3114.2 2118.13 3114.2 2118.13 2966 2127.85 2966"></polygon>
            <path d="M2050.8,3008.86 C2062.16,3008.86 2070.67,3011.72 2076.32,3017.43 C2081.97,3023.15 2084.8,3032.26 2084.8,3044.77 L2084.8,3114.2 L2077.37,3114.2 L2075.66,3096.1 L2075.08,3096.1 C2072.86,3099.98 2070.16,3103.44 2066.99,3106.48 C2063.81,3109.47 2059.91,3111.82 2055.27,3113.53 C2050.7,3115.25 2045.11,3116.1 2038.51,3116.1 C2031.84,3116.1 2026.13,3114.99 2021.37,3112.77 C2016.67,3110.55 2013.02,3107.31 2010.41,3103.06 C2007.87,3098.8 2006.6,3093.63 2006.6,3087.53 C2006.6,3077.24 2010.86,3069.43 2019.37,3064.1 C2027.87,3058.7 2040.1,3055.66 2056.04,3054.96 L2075.27,3054.01 L2075.27,3046.48 C2075.27,3035.88 2073.18,3028.32 2068.99,3023.81 C2064.8,3019.3 2058.61,3017.05 2050.42,3017.05 C2045.08,3017.05 2039.94,3017.75 2034.99,3019.15 C2030.1,3020.48 2025.11,3022.42 2020.03,3024.96 L2016.99,3016.96 C2021.94,3014.61 2027.24,3012.67 2032.89,3011.15 C2038.61,3009.62 2044.57,3008.86 2050.8,3008.86 Z M2075.18,3061.53 L2057.08,3062.29 C2043.94,3062.93 2033.94,3065.28 2027.08,3069.34 C2020.22,3073.4 2016.79,3079.5 2016.79,3087.63 C2016.79,3094.17 2018.83,3099.18 2022.89,3102.67 C2027.02,3106.17 2032.73,3107.91 2040.03,3107.91 C2051.4,3107.91 2060.07,3104.67 2066.04,3098.2 C2072.07,3091.72 2075.12,3082.9 2075.18,3071.72 L2075.18,3061.53 Z" id="Shape" fill-rule="nonzero"></path>
            <path d="M1980.03,3010.67 L1980.03,3114.2 L1970.41,3114.2 L1970.41,3010.67 L1980.03,3010.67 Z M1975.36,2972.38 C1977.78,2972.38 1979.55,2973.11 1980.7,2974.57 C1981.84,2975.97 1982.41,2977.87 1982.41,2980.29 C1982.41,2982.7 1981.84,2984.6 1980.7,2986 C1979.55,2987.4 1977.78,2988.1 1975.36,2988.1 C1973.08,2988.1 1971.36,2987.4 1970.22,2986 C1969.08,2984.6 1968.51,2982.7 1968.51,2980.29 C1968.51,2977.87 1969.08,2975.97 1970.22,2974.57 C1971.36,2973.11 1973.08,2972.38 1975.36,2972.38 Z" id="Shape" fill-rule="nonzero"></path>
            <path d="M1933.08,3107.82 C1936.06,3107.82 1938.82,3107.6 1941.36,3107.15 C1943.96,3106.71 1946.25,3106.14 1948.22,3105.44 L1948.22,3113.44 C1946.19,3114.14 1943.81,3114.74 1941.08,3115.25 C1938.35,3115.82 1935.33,3116.11 1932.03,3116.11 C1926.19,3116.11 1921.33,3115.03 1917.46,3112.87 C1913.58,3110.64 1910.66,3107.31 1908.69,3102.87 C1906.72,3098.36 1905.74,3092.64 1905.74,3085.72 L1905.74,3018.67 L1890.31,3018.67 L1890.31,3012.96 L1905.64,3010 L1908.98,2985.62 L1915.36,2985.62 L1915.36,3010.67 L1947.65,3010.67 L1947.65,3018.67 L1915.36,3018.67 L1915.36,3085.15 C1915.36,3092.58 1916.72,3098.23 1919.46,3102.1 C1922.25,3105.91 1926.79,3107.82 1933.08,3107.82 Z" id="Path" fill-rule="nonzero"></path>
            <path d="M1837.83,3008.86 C1849.2,3008.86 1857.71,3011.72 1863.36,3017.43 C1869.01,3023.15 1871.83,3032.26 1871.83,3044.77 L1871.83,3114.2 L1864.4,3114.2 L1862.69,3096.1 L1862.12,3096.1 C1859.9,3099.98 1857.2,3103.44 1854.02,3106.48 C1850.85,3109.47 1846.94,3111.82 1842.31,3113.53 C1837.74,3115.25 1832.15,3116.1 1825.54,3116.1 C1818.88,3116.1 1813.16,3114.99 1808.4,3112.77 C1803.7,3110.55 1800.05,3107.31 1797.45,3103.06 C1794.91,3098.8 1793.64,3093.63 1793.64,3087.53 C1793.64,3077.24 1797.89,3069.43 1806.4,3064.1 C1814.91,3058.7 1827.13,3055.66 1843.07,3054.96 L1862.31,3054.01 L1862.31,3046.48 C1862.31,3035.88 1860.21,3028.32 1856.02,3023.81 C1851.83,3019.3 1845.64,3017.05 1837.45,3017.05 C1832.12,3017.05 1826.97,3017.75 1822.02,3019.15 C1817.13,3020.48 1812.15,3022.42 1807.07,3024.96 L1804.02,3016.96 C1808.97,3014.61 1814.27,3012.67 1819.93,3011.15 C1825.64,3009.62 1831.61,3008.86 1837.83,3008.86 Z M1862.21,3061.53 L1844.12,3062.29 C1830.97,3062.93 1820.97,3065.28 1814.12,3069.34 C1807.26,3073.4 1803.83,3079.5 1803.83,3087.63 C1803.83,3094.17 1805.86,3099.18 1809.92,3102.67 C1814.05,3106.17 1819.77,3107.91 1827.07,3107.91 C1838.43,3107.91 1847.1,3104.67 1853.07,3098.2 C1859.1,3091.72 1862.15,3082.9 1862.21,3071.72 L1862.21,3061.53 Z" id="Shape" fill-rule="nonzero"></path>
            <path d="M1731.35,3008.67 C1744.68,3008.67 1755,3013.15 1762.3,3022.1 C1769.67,3031.05 1773.35,3044.26 1773.35,3061.72 C1773.35,3073.4 1771.6,3083.31 1768.11,3091.44 C1764.62,3099.5 1759.64,3105.63 1753.16,3109.82 C1746.75,3114.01 1739.03,3116.11 1730.01,3116.11 C1723.79,3116.11 1718.36,3115.18 1713.73,3113.34 C1709.16,3111.44 1705.35,3108.9 1702.3,3105.72 C1699.25,3102.49 1696.9,3098.93 1695.25,3095.06 L1694.58,3095.06 C1694.77,3098.68 1694.93,3102.45 1695.06,3106.39 C1695.19,3110.33 1695.25,3114.04 1695.25,3117.53 L1695.25,3160.01 L1685.54,3160.01 L1685.54,3010.67 L1693.54,3010.67 L1694.68,3031.34 L1695.25,3031.34 C1696.96,3027.4 1699.38,3023.69 1702.49,3020.19 C1705.6,3016.7 1709.54,3013.91 1714.3,3011.81 C1719.06,3009.72 1724.74,3008.67 1731.35,3008.67 Z M1730.11,3017.15 C1722.3,3017.15 1715.79,3018.86 1710.58,3022.29 C1705.44,3025.66 1701.6,3030.61 1699.06,3037.15 C1696.58,3043.62 1695.31,3051.56 1695.25,3060.96 L1695.25,3062.58 C1695.25,3072.67 1696.49,3081.09 1698.97,3087.82 C1701.5,3094.48 1705.28,3099.47 1710.3,3102.77 C1715.38,3106.07 1721.66,3107.72 1729.16,3107.72 C1736.52,3107.72 1742.75,3105.91 1747.83,3102.29 C1752.91,3098.68 1756.78,3093.44 1759.45,3086.58 C1762.11,3079.72 1763.45,3071.4 1763.45,3061.63 C1763.45,3047.09 1760.65,3036.04 1755.06,3028.48 C1749.54,3020.92 1741.22,3017.15 1730.11,3017.15 Z" id="Shape" fill-rule="nonzero"></path>
            <path d="M1659.34,3087.06 C1659.34,3093.21 1657.79,3098.49 1654.68,3102.87 C1651.63,3107.18 1647.15,3110.49 1641.25,3112.77 C1635.34,3114.99 1628.07,3116.11 1619.44,3116.11 C1612.26,3116.11 1605.85,3115.47 1600.2,3114.2 C1594.55,3112.93 1589.82,3111.37 1586.01,3109.53 L1586.01,3100.01 C1590.77,3102.36 1596.04,3104.26 1601.82,3105.72 C1607.59,3107.18 1613.53,3107.91 1619.63,3107.91 C1630.29,3107.91 1637.98,3106.1 1642.68,3102.49 C1647.37,3098.87 1649.72,3093.91 1649.72,3087.63 C1649.72,3083.5 1648.55,3080.1 1646.2,3077.44 C1643.91,3074.71 1640.61,3072.36 1636.29,3070.39 C1631.98,3068.42 1626.77,3066.42 1620.67,3064.39 C1614.32,3062.23 1608.67,3060.1 1603.72,3058.01 C1598.83,3055.85 1594.99,3053.02 1592.2,3049.53 C1589.4,3045.97 1588.01,3041.15 1588.01,3035.05 C1588.01,3026.73 1591.34,3020.26 1598.01,3015.62 C1604.67,3010.99 1613.63,3008.67 1624.86,3008.67 C1631.09,3008.67 1636.87,3009.27 1642.2,3010.48 C1647.6,3011.62 1652.49,3013.11 1656.87,3014.96 L1653.44,3023.15 C1649.5,3021.31 1644.96,3019.81 1639.82,3018.67 C1634.68,3017.53 1629.53,3016.96 1624.39,3016.96 C1615.94,3016.96 1609.34,3018.45 1604.58,3021.43 C1599.82,3024.42 1597.43,3028.8 1597.43,3034.58 C1597.43,3039.02 1598.58,3042.51 1600.86,3045.05 C1603.15,3047.53 1606.42,3049.62 1610.67,3051.34 C1614.93,3052.99 1619.98,3054.83 1625.82,3056.86 C1631.85,3058.96 1637.41,3061.15 1642.49,3063.44 C1647.63,3065.72 1651.72,3068.67 1654.77,3072.29 C1657.82,3075.91 1659.34,3080.83 1659.34,3087.06 Z" id="Path" fill-rule="nonzero"></path>
            <path d="M1566,3062.29 C1566,3070.29 1565.02,3077.59 1563.05,3084.2 C1561.08,3090.74 1558.16,3096.39 1554.29,3101.15 C1550.42,3105.91 1545.59,3109.6 1539.81,3112.2 C1534.1,3114.8 1527.43,3116.11 1519.81,3116.11 C1512.57,3116.11 1506.13,3114.84 1500.48,3112.3 C1494.83,3109.69 1490.03,3106.01 1486.09,3101.25 C1482.22,3096.49 1479.27,3090.83 1477.24,3084.29 C1475.2,3077.69 1474.19,3070.36 1474.19,3062.29 C1474.19,3051.18 1476.03,3041.62 1479.71,3033.62 C1483.46,3025.56 1488.79,3019.4 1495.71,3015.15 C1502.7,3010.83 1511.05,3008.67 1520.76,3008.67 C1530.8,3008.67 1539.15,3010.96 1545.81,3015.53 C1552.54,3020.04 1557.59,3026.32 1560.96,3034.39 C1564.32,3042.45 1566,3051.75 1566,3062.29 Z M1484.09,3062.29 C1484.09,3071.37 1485.4,3079.31 1488,3086.1 C1490.6,3092.9 1494.54,3098.2 1499.81,3102.01 C1505.14,3105.82 1511.87,3107.72 1520,3107.72 C1528.32,3107.72 1535.15,3105.82 1540.48,3102.01 C1545.81,3098.2 1549.75,3092.87 1552.29,3086.01 C1554.83,3079.15 1556.1,3071.25 1556.1,3062.29 C1556.1,3053.59 1554.89,3045.85 1552.48,3039.05 C1550.07,3032.26 1546.26,3026.93 1541.05,3023.05 C1535.84,3019.12 1529.05,3017.15 1520.67,3017.15 C1508.67,3017.15 1499.56,3021.15 1493.33,3029.15 C1487.17,3037.15 1484.09,3048.2 1484.09,3062.29 Z" id="Shape" fill-rule="nonzero"></path>
            <path d="M1412.09,3008.67 C1420.92,3008.67 1428.25,3010.73 1434.09,3014.86 C1440,3018.99 1444.38,3024.64 1447.23,3031.81 C1450.16,3038.99 1451.62,3047.21 1451.62,3056.48 L1451.62,3063.44 L1376.85,3063.44 C1376.85,3077.66 1380.12,3088.58 1386.66,3096.2 C1393.26,3103.82 1402.69,3107.63 1414.95,3107.63 C1421.36,3107.63 1426.92,3107.12 1431.61,3106.1 C1436.38,3105.03 1441.65,3103.22 1447.43,3100.68 L1447.43,3109.53 C1442.35,3111.82 1437.27,3113.47 1432.19,3114.49 C1427.11,3115.57 1421.26,3116.11 1414.66,3116.11 C1404.18,3116.11 1395.39,3113.95 1388.28,3109.63 C1381.23,3105.25 1375.9,3099.09 1372.28,3091.15 C1368.72,3083.21 1366.94,3073.94 1366.94,3063.34 C1366.94,3052.99 1368.66,3043.69 1372.09,3035.43 C1375.58,3027.18 1380.66,3020.67 1387.33,3015.91 C1394.06,3011.08 1402.31,3008.67 1412.09,3008.67 Z M1411.99,3016.96 C1402.09,3016.96 1394.06,3020.26 1387.9,3026.86 C1381.8,3033.4 1378.21,3042.86 1377.13,3055.24 L1441.62,3055.24 C1441.62,3047.69 1440.54,3041.02 1438.38,3035.24 C1436.22,3029.46 1432.95,3024.99 1428.57,3021.81 C1424.25,3018.58 1418.72,3016.96 1411.99,3016.96 Z" id="Shape" fill-rule="nonzero"></path>
            <path d="M1298.94,3161.06 C1285.92,3161.06 1275.8,3158.55 1268.56,3153.54 C1261.38,3148.52 1257.79,3141.5 1257.79,3132.49 C1257.79,3125.5 1259.98,3119.47 1264.37,3114.39 C1268.75,3109.37 1274.68,3106.36 1282.18,3105.34 C1279.19,3103.95 1276.75,3102.04 1274.84,3099.63 C1273,3097.22 1272.08,3094.42 1272.08,3091.25 C1272.08,3087.69 1273.19,3084.39 1275.41,3081.34 C1277.64,3078.23 1280.97,3075.37 1285.41,3072.77 C1279.45,3070.61 1274.75,3066.96 1271.32,3061.82 C1267.89,3056.61 1266.18,3050.36 1266.18,3043.05 C1266.18,3036.07 1267.67,3030 1270.65,3024.86 C1273.64,3019.72 1277.86,3015.75 1283.32,3012.96 C1288.84,3010.1 1295.35,3008.67 1302.84,3008.67 C1305.13,3008.67 1307.19,3008.73 1309.04,3008.86 C1310.94,3008.99 1312.69,3009.21 1314.27,3009.53 C1315.86,3009.78 1317.29,3010.13 1318.56,3010.57 L1351.99,3010.57 L1351.99,3017.43 L1330.66,3018.86 C1333.45,3022.23 1335.55,3025.88 1336.94,3029.81 C1338.34,3033.69 1339.04,3037.78 1339.04,3042.1 C1339.04,3052.39 1335.8,3060.55 1329.32,3066.58 C1322.85,3072.61 1313.83,3075.63 1302.27,3075.63 C1299.1,3075.63 1295.99,3075.34 1292.94,3074.77 C1289.07,3077.06 1286.11,3079.37 1284.08,3081.72 C1282.05,3084.01 1281.03,3086.87 1281.03,3090.29 C1281.03,3092.45 1281.67,3094.23 1282.94,3095.63 C1284.21,3096.96 1286.05,3098.01 1288.46,3098.77 C1290.88,3099.47 1293.83,3099.82 1297.32,3099.82 L1315.51,3099.82 C1326.75,3099.82 1335.35,3102.1 1341.32,3106.68 C1347.29,3111.25 1350.28,3117.98 1350.28,3126.87 C1350.28,3137.73 1345.8,3146.14 1336.85,3152.11 C1327.96,3158.08 1315.32,3161.06 1298.94,3161.06 Z M1299.61,3152.96 C1308.69,3152.96 1316.24,3151.98 1322.27,3150.01 C1328.37,3148.04 1332.94,3145.12 1335.99,3141.25 C1339.04,3137.44 1340.56,3132.71 1340.56,3127.06 C1340.56,3122.42 1339.45,3118.84 1337.23,3116.3 C1335.01,3113.76 1331.86,3112.01 1327.8,3111.06 C1323.73,3110.04 1318.94,3109.53 1313.42,3109.53 L1296.08,3109.53 C1290.56,3109.53 1285.64,3110.3 1281.32,3111.82 C1277,3113.28 1273.64,3115.63 1271.22,3118.87 C1268.87,3122.11 1267.7,3126.42 1267.7,3131.82 C1267.7,3138.74 1270.4,3143.98 1275.8,3147.54 C1281.26,3151.16 1289.19,3152.96 1299.61,3152.96 Z M1302.65,3067.91 C1311.23,3067.91 1317.8,3065.75 1322.37,3061.44 C1326.94,3057.12 1329.23,3050.86 1329.23,3042.67 C1329.23,3033.91 1326.88,3027.34 1322.18,3022.96 C1317.48,3018.58 1310.91,3016.38 1302.46,3016.38 C1294.27,3016.38 1287.83,3018.73 1283.13,3023.43 C1278.49,3028.07 1276.18,3034.61 1276.18,3043.05 C1276.18,3050.93 1278.4,3057.05 1282.84,3061.44 C1287.29,3065.75 1293.89,3067.91 1302.65,3067.91 Z" id="Shape" fill-rule="nonzero"></path>
            <path d="M1152.84,3008.67 C1161.66,3008.67 1168.99,3010.73 1174.84,3014.86 C1180.74,3018.99 1185.12,3024.64 1187.98,3031.81 C1190.9,3038.99 1192.36,3047.21 1192.36,3056.48 L1192.36,3063.44 L1117.59,3063.44 C1117.59,3077.66 1120.86,3088.58 1127.4,3096.2 C1134.01,3103.82 1143.44,3107.63 1155.69,3107.63 C1162.11,3107.63 1167.66,3107.12 1172.36,3106.1 C1177.12,3105.03 1182.39,3103.22 1188.17,3100.68 L1188.17,3109.53 C1183.09,3111.82 1178.01,3113.47 1172.93,3114.49 C1167.85,3115.57 1162.01,3116.11 1155.41,3116.11 C1144.93,3116.11 1136.14,3113.95 1129.02,3109.63 C1121.98,3105.25 1116.64,3099.09 1113.02,3091.15 C1109.47,3083.21 1107.69,3073.94 1107.69,3063.34 C1107.69,3052.99 1109.4,3043.69 1112.83,3035.43 C1116.32,3027.18 1121.4,3020.67 1128.07,3015.91 C1134.8,3011.08 1143.06,3008.67 1152.84,3008.67 Z M1152.74,3016.96 C1142.83,3016.96 1134.8,3020.26 1128.64,3026.86 C1122.55,3033.4 1118.96,3042.86 1117.88,3055.24 L1182.36,3055.24 C1182.36,3047.69 1181.28,3041.02 1179.12,3035.24 C1176.96,3029.46 1173.69,3024.99 1169.31,3021.81 C1164.99,3018.58 1159.47,3016.96 1152.74,3016.96 Z" id="Shape" fill-rule="nonzero"></path>
            <path d="M1046.45,3114.2 L1006.73,3010.67 L1016.92,3010.67 L1043.49,3081.25 C1045.15,3085.5 1046.61,3089.6 1047.88,3093.53 C1049.21,3097.41 1050.32,3100.93 1051.21,3104.1 L1051.69,3104.1 C1052.7,3100.93 1053.84,3097.37 1055.11,3093.44 C1056.45,3089.5 1057.91,3085.44 1059.5,3081.25 L1086.07,3010.67 L1096.36,3010.67 L1056.54,3114.2 L1046.45,3114.2 Z" id="Path" fill-rule="nonzero"></path>
            <path d="M989.301,3010.67 L989.301,3114.2 L979.681,3114.2 L979.681,3010.67 L989.301,3010.67 Z M984.634,2972.38 C987.047,2972.38 988.825,2973.11 989.968,2974.57 C991.111,2975.97 991.682,2977.87 991.682,2980.29 C991.682,2982.7 991.111,2984.6 989.968,2986 C988.825,2987.4 987.047,2988.1 984.634,2988.1 C982.348,2988.1 980.634,2987.4 979.491,2986 C978.348,2984.6 977.776,2982.7 977.776,2980.29 C977.776,2977.87 978.348,2975.97 979.491,2974.57 C980.634,2973.11 982.348,2972.38 984.634,2972.38 Z" id="Shape" fill-rule="nonzero"></path>
            <path d="M942.346,3107.82 C945.33,3107.82 948.092,3107.6 950.632,3107.15 C953.235,3106.71 955.521,3106.14 957.489,3105.44 L957.489,3113.44 C955.458,3114.14 953.077,3114.74 950.346,3115.25 C947.616,3115.82 944.6,3116.11 941.298,3116.11 C935.456,3116.11 930.599,3115.03 926.726,3112.87 C922.852,3110.64 919.932,3107.31 917.963,3102.87 C915.995,3098.36 915.011,3092.64 915.011,3085.72 L915.011,3018.67 L899.581,3018.67 L899.581,3012.96 L914.915,3010 L918.249,2985.62 L924.63,2985.62 L924.63,3010.67 L956.918,3010.67 L956.918,3018.67 L924.63,3018.67 L924.63,3085.15 C924.63,3092.58 925.995,3098.23 928.726,3102.1 C931.52,3105.91 936.06,3107.82 942.346,3107.82 Z" id="Path" fill-rule="nonzero"></path>
            <path d="M847.101,3008.86 C858.467,3008.86 866.976,3011.72 872.627,3017.43 C878.278,3023.15 881.104,3032.26 881.104,3044.77 L881.104,3114.2 L873.675,3114.2 L871.96,3096.1 L871.389,3096.1 C869.166,3099.98 866.468,3103.44 863.293,3106.48 C860.118,3109.47 856.213,3111.82 851.578,3113.53 C847.006,3115.25 841.419,3116.1 834.815,3116.1 C828.148,3116.1 822.433,3114.99 817.671,3112.77 C812.972,3110.55 809.321,3107.31 806.718,3103.06 C804.178,3098.8 802.908,3093.63 802.908,3087.53 C802.908,3077.24 807.162,3069.43 815.671,3064.1 C824.179,3058.7 836.402,3055.66 852.34,3054.96 L871.579,3054.01 L871.579,3046.48 C871.579,3035.88 869.484,3028.32 865.293,3023.81 C861.102,3019.3 854.912,3017.05 846.721,3017.05 C841.387,3017.05 836.244,3017.75 831.291,3019.15 C826.402,3020.48 821.417,3022.42 816.338,3024.96 L813.29,3016.96 C818.243,3014.61 823.544,3012.67 829.196,3011.15 C834.91,3009.62 840.879,3008.86 847.101,3008.86 Z M871.484,3061.53 L853.388,3062.29 C840.244,3062.93 830.243,3065.28 823.386,3069.34 C816.528,3073.4 813.099,3079.5 813.099,3087.63 C813.099,3094.17 815.131,3099.18 819.195,3102.67 C823.322,3106.17 829.037,3107.91 836.339,3107.91 C847.705,3107.91 856.372,3104.67 862.341,3098.2 C868.373,3091.72 871.42,3082.9 871.484,3071.72 L871.484,3061.53 Z" id="Shape" fill-rule="nonzero"></path>
            <path d="M741.285,3008.67 C752.905,3008.67 761.826,3011.72 768.049,3017.81 C774.271,3023.91 777.383,3033.47 777.383,3046.48 L777.383,3114.2 L767.858,3114.2 L767.858,3047.05 C767.858,3036.77 765.509,3029.21 760.81,3024.39 C756.111,3019.56 749.286,3017.15 740.333,3017.15 C728.967,3017.15 720.268,3020.48 714.236,3027.15 C708.267,3033.75 705.283,3043.75 705.283,3057.15 L705.283,3114.2 L695.663,3114.2 L695.663,3010.67 L703.473,3010.67 L704.902,3029.53 L705.473,3029.53 C707.315,3025.66 709.823,3022.16 712.998,3019.05 C716.236,3015.88 720.204,3013.37 724.903,3011.53 C729.602,3009.62 735.062,3008.67 741.285,3008.67 Z" id="Path" fill-rule="nonzero"></path>
            <path d="M566.321,3116.1 C552.162,3116.1 541.368,3111.66 533.938,3102.77 C526.573,3093.82 522.89,3080.8 522.89,3063.72 C522.89,3045.81 526.795,3032.16 534.605,3022.77 C542.415,3013.37 553.305,3008.67 567.274,3008.67 C573.243,3008.67 578.417,3009.59 582.799,3011.43 C587.243,3013.27 590.958,3015.78 593.942,3018.96 C596.99,3022.07 599.339,3025.62 600.99,3029.62 L601.752,3029.62 C601.498,3026.26 601.308,3022.64 601.181,3018.77 C601.054,3014.89 600.99,3011.34 600.99,3008.1 L600.99,2966 L610.61,2966 L610.61,3114.2 L602.8,3114.2 L601.562,3095.25 L600.99,3095.25 C599.276,3099.06 596.895,3102.55 593.847,3105.72 C590.863,3108.9 587.116,3111.44 582.608,3113.34 C578.1,3115.18 572.671,3116.1 566.321,3116.1 Z M567.369,3107.72 C579.56,3107.72 588.228,3103.95 593.371,3096.39 C598.514,3088.77 601.086,3077.91 601.086,3063.82 L601.086,3062.29 C601.086,3047.69 598.514,3036.51 593.371,3028.77 C588.228,3020.96 579.846,3017.05 568.226,3017.05 C556.734,3017.05 547.939,3021.05 541.844,3029.05 C535.812,3037.05 532.796,3048.67 532.796,3063.91 C532.796,3078.26 535.621,3089.15 541.272,3096.58 C546.987,3104.01 555.686,3107.72 567.369,3107.72 Z" id="Shape" fill-rule="nonzero"></path>
            <path d="M494.032,3010.67 L494.032,3114.2 L486.221,3114.2 L484.793,3095.53 L484.221,3095.53 C482.443,3099.34 479.935,3102.8 476.697,3105.91 C473.459,3109.03 469.49,3111.5 464.792,3113.34 C460.093,3115.18 454.632,3116.11 448.41,3116.11 C440.473,3116.11 433.805,3114.74 428.408,3112.01 C423.075,3109.22 419.043,3105.03 416.312,3099.44 C413.582,3093.85 412.217,3086.87 412.217,3078.48 L412.217,3010.67 L421.836,3010.67 L421.836,3077.53 C421.836,3087.88 424.154,3095.5 428.789,3100.39 C433.488,3105.28 440.346,3107.72 449.362,3107.72 C456.982,3107.72 463.363,3106.26 468.506,3103.34 C473.713,3100.42 477.65,3096.01 480.316,3090.1 C483.047,3084.13 484.412,3076.71 484.412,3067.82 L484.412,3010.67 L494.032,3010.67 Z" id="Path" fill-rule="nonzero"></path>
            <path d="M384.977,3062.29 C384.977,3070.29 383.993,3077.59 382.024,3084.2 C380.056,3090.74 377.135,3096.39 373.262,3101.15 C369.389,3105.91 364.563,3109.6 358.785,3112.2 C353.07,3114.8 346.403,3116.11 338.784,3116.11 C331.545,3116.11 325.1,3114.84 319.449,3112.3 C313.798,3109.69 309.004,3106.01 305.067,3101.25 C301.194,3096.49 298.241,3090.83 296.209,3084.29 C294.178,3077.69 293.162,3070.36 293.162,3062.29 C293.162,3051.18 295.003,3041.62 298.686,3033.62 C302.432,3025.56 307.766,3019.4 314.687,3015.15 C321.671,3010.83 330.021,3008.67 339.736,3008.67 C349.768,3008.67 358.118,3010.96 364.785,3015.53 C371.516,3020.04 376.564,3026.32 379.929,3034.39 C383.294,3042.45 384.977,3051.75 384.977,3062.29 Z M303.067,3062.29 C303.067,3071.37 304.369,3079.31 306.972,3086.1 C309.575,3092.9 313.512,3098.2 318.782,3102.01 C324.116,3105.82 330.847,3107.72 338.974,3107.72 C347.292,3107.72 354.118,3105.82 359.452,3102.01 C364.785,3098.2 368.722,3092.87 371.262,3086.01 C373.802,3079.15 375.072,3071.25 375.072,3062.29 C375.072,3053.59 373.865,3045.85 371.452,3039.05 C369.039,3032.26 365.23,3026.93 360.023,3023.05 C354.816,3019.12 348.022,3017.15 339.641,3017.15 C327.64,3017.15 318.528,3021.15 312.306,3029.15 C306.147,3037.15 303.067,3048.2 303.067,3062.29 Z" id="Shape" fill-rule="nonzero"></path>
            <polygon id="Path" fill-rule="nonzero" points="264.684 3114.2 254.969 3114.2 254.969 2966 264.684 2966"></polygon>
            <path d="M203.632,3116.11 C193.345,3116.11 184.646,3113.98 177.535,3109.72 C170.487,3105.41 165.153,3099.28 161.534,3091.34 C157.978,3083.34 156.2,3073.88 156.2,3062.96 C156.2,3051.59 158.264,3041.88 162.391,3033.81 C166.518,3025.69 172.328,3019.46 179.821,3015.15 C187.313,3010.83 196.107,3008.67 206.203,3008.67 C211.156,3008.67 215.76,3009.11 220.014,3010 C224.268,3010.89 228.11,3012.13 231.538,3013.72 L228.967,3022.19 C225.411,3020.61 221.633,3019.4 217.633,3018.58 C213.632,3017.75 209.791,3017.34 206.108,3017.34 C197.6,3017.34 190.361,3019.21 184.392,3022.96 C178.487,3026.64 173.947,3031.91 170.773,3038.77 C167.661,3045.56 166.106,3053.59 166.106,3062.86 C166.106,3071.56 167.439,3079.28 170.106,3086.01 C172.773,3092.68 176.868,3097.95 182.392,3101.82 C187.916,3105.63 194.996,3107.53 203.632,3107.53 C208.648,3107.53 213.41,3107.03 217.918,3106.01 C222.49,3104.99 226.649,3103.69 230.395,3102.1 L230.395,3110.87 C227.03,3112.39 223.125,3113.63 218.68,3114.58 C214.299,3115.6 209.283,3116.11 203.632,3116.11 Z" id="Path" fill-rule="nonzero"></path>
            <path d="M44.1933,3008.86 C55.5591,3008.86 64.0676,3011.72 69.7187,3017.43 C75.3699,3023.15 78.1954,3032.26 78.1954,3044.77 L78.1954,3114.2 L70.7664,3114.2 L69.052,3096.1 L68.4805,3096.1 C66.2582,3099.98 63.5596,3103.44 60.3848,3106.48 C57.21,3109.47 53.305,3111.82 48.6698,3113.53 C44.098,3115.25 38.5104,3116.1 31.9068,3116.1 C25.2397,3116.1 19.5251,3114.99 14.7628,3112.77 C10.0641,3110.55 6.41311,3107.31 3.80977,3103.06 C1.26992,3098.8 0,3093.63 0,3087.53 C0,3077.24 4.25424,3069.43 12.7627,3064.1 C21.2712,3058.7 33.4942,3055.66 49.4317,3054.96 L68.671,3054.01 L68.671,3046.48 C68.671,3035.88 66.5757,3028.32 62.3849,3023.81 C58.1942,3019.3 52.0033,3017.05 43.8123,3017.05 C38.4786,3017.05 33.3355,3017.75 28.3828,3019.15 C23.4936,3020.48 18.5091,3022.42 13.4294,3024.96 L10.3816,3016.96 C15.3343,3014.61 20.6362,3012.67 26.2874,3011.15 C32.002,3009.62 37.9707,3008.86 44.1933,3008.86 Z M68.5758,3061.53 L50.4794,3062.29 C37.3357,3062.93 27.3351,3065.28 20.4775,3069.34 C13.6199,3073.4 10.1911,3079.5 10.1911,3087.63 C10.1911,3094.17 12.223,3099.18 16.2867,3102.67 C20.414,3106.17 26.1286,3107.91 33.4307,3107.91 C44.7965,3107.91 53.4637,3104.67 59.4323,3098.2 C65.4645,3091.72 68.5123,3082.9 68.5758,3071.72 L68.5758,3061.53 Z" id="Shape" fill-rule="nonzero"></path>
        </g>
    </g>
</svg>