<svg xmlns="http://www.w3.org/2000/svg" xmlns:xlink="http://www.w3.org/1999/xlink" width="321" height="90" viewBox="0 0 321 90"><title>dynamical.org logo</title><defs><path id="a" d="M0 0h321.3v90H0z"/></defs><g fill="none" fill-rule="evenodd"><use xlink:href="#a" fill="#2c3233"/><path fill="#efebea" fill-rule="nonzero" d="M37.276 55.155h-.143q-1.778 3.42-5.652 3.42-3.377 0-5.297-2.53-1.884-2.529-1.884-7.089t1.884-7.09q1.92-2.528 5.297-2.529 3.874 0 5.652 3.42h.143V31.786h2.843v26.363h-2.843zm-4.693.89q.96 0 1.813-.249a4.8 4.8 0 0 0 1.493-.712q.64-.5.995-1.176.392-.712.392-1.639v-6.626q0-.926-.392-1.603a3.2 3.2 0 0 0-.995-1.176 4.4 4.4 0 0 0-1.493-.748 6.4 6.4 0 0 0-1.813-.25q-2.488 0-3.875 1.533-1.35 1.495-1.35 3.99v3.135q0 2.493 1.35 4.025 1.386 1.497 3.875 1.497m27.501-16.28h2.844l-9.1 22.408q-.32.784-.711 1.354-.392.605-.925.962a3.5 3.5 0 0 1-1.28.57q-.746.213-1.777.213h-2.702V62.85H50.7l2.062-5.059-7.394-18.026h2.915l3.093 7.695 2.737 6.983h.142l2.738-6.983zm8.198 18.383V39.765h2.844v2.992h.143q.285-.676.71-1.282a4.6 4.6 0 0 1 1.031-1.104 5.5 5.5 0 0 1 1.494-.748q.853-.285 1.99-.285 2.88 0 4.622 1.852 1.741 1.817 1.742 5.166v11.792h-2.844V46.854q0-2.53-1.102-3.74-1.102-1.247-3.235-1.247a6.6 6.6 0 0 0-1.671.214 4.8 4.8 0 0 0-1.458.64q-.64.429-1.03 1.105-.392.677-.392 1.568v12.754zm35.43 0q-1.671 0-2.383-.856-.711-.855-.888-2.137h-.178q-.605 1.603-1.955 2.53-1.315.89-3.555.89-2.88 0-4.586-1.496t-1.706-4.097q0-2.565 1.848-3.954 1.883-1.39 6.044-1.39h3.91v-1.817q0-2.03-1.138-3.028-1.137-1.033-3.235-1.033-1.849 0-3.021.748a5.34 5.34 0 0 0-1.884 1.96l-1.92-1.426q.356-.712.96-1.389t1.493-1.175a7.4 7.4 0 0 1 2.026-.82q1.138-.32 2.524-.32 3.235 0 5.12 1.638 1.92 1.64 1.919 4.56v10.118h2.56v2.493zm-8.461-1.96a7.4 7.4 0 0 0 1.99-.25 6.6 6.6 0 0 0 1.6-.712q.675-.462 1.031-1.069.39-.64.391-1.353v-3.028h-3.91q-2.56 0-3.733.712-1.173.713-1.173 2.066v.749q0 1.425.995 2.173 1.031.712 2.809.712m14.099 1.96V39.765h2.63v2.138h.143a5.1 5.1 0 0 1 1.208-1.817q.783-.749 2.311-.748 1.599 0 2.382.819.782.783.96 2.066h.106q.498-1.247 1.422-2.066.925-.82 2.56-.82 2.24 0 2.986 1.568.782 1.567.782 4.489v12.754h-2.63V45.857q0-2.352-.498-3.242-.462-.926-1.742-.926-1.138 0-1.849.748-.71.712-.71 2.209v13.502h-2.631V45.857q0-2.352-.498-3.242-.462-.926-1.706-.926-1.138 0-1.885.748-.71.712-.71 2.209v13.502zm31.198-22.444q-1.245 0-1.742-.499-.498-.534-.497-1.318v-.57q0-.784.497-1.283.498-.534 1.742-.534 1.245 0 1.742.534.498.499.498 1.283v.57q0 .784-.498 1.318-.498.5-1.742.499m-8.034 20.021h6.612V42.187h-6.612v-2.422h9.456v15.96h6.186v2.422h-15.642zm28.852 2.85q-1.99 0-3.555-.677a7.6 7.6 0 0 1-2.595-1.96q-1.066-1.246-1.635-3.027-.533-1.782-.533-3.955t.569-3.954 1.635-3.028a7 7 0 0 1 2.595-1.96q1.528-.676 3.484-.677 2.666 0 4.337 1.176a6.9 6.9 0 0 1 2.453 3.064l-2.275 1.211q-.499-1.425-1.671-2.209-1.138-.783-2.844-.783-1.245 0-2.24.427a4.4 4.4 0 0 0-1.635 1.14 5.1 5.1 0 0 0-1.031 1.781 7.6 7.6 0 0 0-.32 2.245v3.135q0 1.21.32 2.244.355 1.034 1.03 1.781a4.7 4.7 0 0 0 1.672 1.176q.995.392 2.275.392 1.848 0 3.057-.855t1.92-2.351l2.026 1.389q-.817 1.852-2.56 3.064-1.705 1.21-4.479 1.211m27.608-.428q-1.67 0-2.381-.855t-.89-2.137h-.177q-.604 1.603-1.955 2.53-1.316.89-3.555.89-2.88 0-4.586-1.496t-1.706-4.097q0-2.565 1.848-3.954 1.884-1.39 6.044-1.39h3.91v-1.817q0-2.03-1.138-3.028-1.137-1.033-3.235-1.033-1.849 0-3.021.748a5.34 5.34 0 0 0-1.884 1.96l-1.92-1.426q.355-.712.96-1.389.604-.677 1.493-1.175a7.4 7.4 0 0 1 2.026-.82q1.138-.32 2.524-.32 3.235 0 5.12 1.638 1.92 1.64 1.919 4.56v10.118h2.56v2.493zm-8.46-1.959a7.4 7.4 0 0 0 1.99-.25 6.6 6.6 0 0 0 1.6-.712q.675-.462 1.031-1.069.39-.64.391-1.353v-3.028h-3.91q-2.56 0-3.733.712-1.173.713-1.173 2.066v.749q0 1.425.995 2.173 1.032.712 2.809.712m15.023-.463h6.399V34.208h-6.399v-2.423h9.243v23.94h6.399v2.422h-15.642zm29.137 2.743q-1.459 0-2.062-.606-.57-.605-.569-1.531v-.642q0-.926.569-1.532.604-.605 2.062-.605t2.026.605q.604.606.604 1.532v.642q.001.926-.604 1.531-.568.606-2.026.606m21.316.107q-1.92 0-3.484-.677a7.55 7.55 0 0 1-2.631-1.924q-1.066-1.282-1.635-3.028-.57-1.78-.569-3.99 0-2.173.569-3.954t1.635-3.028a7.36 7.36 0 0 1 2.63-1.96q1.566-.676 3.485-.677 1.92 0 3.448.677a7 7 0 0 1 2.63 1.96q1.103 1.246 1.671 3.028.57 1.781.57 3.954 0 2.21-.57 3.99-.569 1.746-1.67 3.028a7.1 7.1 0 0 1-2.631 1.924q-1.53.677-3.448.677m0-2.458q2.38 0 3.839-1.425 1.458-1.425 1.457-4.418v-2.636q0-2.992-1.457-4.417t-3.84-1.425q-2.38 0-3.839 1.425-1.457 1.425-1.457 4.417v2.636q0 2.993 1.457 4.418t3.84 1.425m13.388-.392h5.368V42.187h-5.368v-2.422h8.212v4.631h.177q.57-2.173 2.133-3.384 1.6-1.247 4.053-1.247h2.56v2.85h-3.449q-2.452 0-3.981 1.425-1.494 1.425-1.493 3.74v7.945h7.11v2.422h-15.322zm38.522 4.524q-.001 2.78-2.31 4.097-2.313 1.354-6.933 1.354-4.445 0-6.399-1.176-1.92-1.175-1.919-3.384-.002-1.497.78-2.316.783-.82 2.206-1.21v-.428q-.783-.392-1.208-.998-.429-.606-.428-1.532 0-1.425.925-2.137.959-.713 2.38-1.069v-.143q-1.704-.747-2.666-2.208-.922-1.461-.922-3.42c0-.927.163-1.782.497-2.565a5.5 5.5 0 0 1 1.422-1.995 6.7 6.7 0 0 1 2.274-1.318q1.317-.464 2.917-.464 2.061 0 3.624.749v-.321q.001-1.068.497-1.781.5-.713 1.708-.713h3.377v2.494h-4.124v1.247a5.8 5.8 0 0 1 1.527 2.03q.534 1.176.534 2.637 0 1.389-.534 2.565a5.8 5.8 0 0 1-1.421 2.03c-.614.547-1.375.974-2.275 1.283q-1.315.463-2.913.463a11 11 0 0 1-1.745-.143q-.425.072-.888.25a2.9 2.9 0 0 0-.853.427 2.2 2.2 0 0 0-.639.606q-.25.355-.25.82-.001.819.82 1.104.816.25 2.133.25h4.052q3.554 0 5.154 1.353 1.6 1.318 1.6 3.562m-2.666.143q0-1.104-.889-1.781-.89-.642-3.094-.642h-6.363q-1.85.749-1.85 2.494.002 1.212.962 2.066.957.891 3.2.891h2.77q2.492 0 3.878-.784 1.385-.748 1.386-2.244m-6.718-10.58q2.131 0 3.127-.998 1.03-.998 1.03-2.636v-1.034q0-1.638-1.03-2.6-.996-.998-3.127-.998-2.134 0-3.13.998-.995.962-.995 2.6v1.034q-.001 1.637.994 2.636.997.997 3.13.997"/></g></svg>