<svg id="b2p-svg-icon-logo" viewBox="0 0 828 271" fill="none" xmlns="http://www.w3.org/2000/svg">
<g clip-path="url(#clip0_62_9)">
<path d="M0 114.86C23.12 115.18 46.18 118.86 68.5 124.71C94.17 131.44 118.81 141.35 142 154.14C143.14 154.77 149.56 158.77 150.1 158.74C159.88 152.57 169.63 146.42 179.84 140.95C200.94 129.64 223.17 120.49 246.38 114.39C254.09 112.36 262.1 110.32 270 109.34V141.11L269.4 141.47C237.36 148.4 206.42 160.46 178.8 178.04L202.89 198.31C213.14 193.02 223.17 187.73 233.93 183.5C240.65 180.86 247.79 178.33 254.69 176.18C259.66 174.63 264.8 172.97 269.99 172.41V204.78C254.75 209.01 239.76 214.46 225.82 221.93L245.19 246.96C250.62 244.7 255.86 242.04 261.36 239.91C264.13 238.84 267.05 237.53 270 237.15V270.24H222.84C196.63 231.96 161.68 200.09 120.49 178.52C83.1 158.94 42.38 147.95 0 146.27L0 114.86Z" fill="var(--logo-color, #EFEBEA)"></path>
<path d="M270 0L269.97 74.18L269.4 74.57C259.15 76.8 248.7 78.47 238.8 82V31.17L30.72 30.93L30.48 82.49L0 80.09V0H270Z" fill="var(--logo-color, #EFEBEA)"></path>
<path d="M0 176.24C4.1 176.62 8.25 176.62 12.36 176.96C72.2 181.9 129.95 210.77 171.13 253.8C176.11 259.01 181.05 264.41 185.28 270.23H143.16C121.51 249.34 96.14 232.87 67.98 222.09C46.43 213.84 23.18 208.38 0 207.88V176.23L0 176.24Z" fill="var(--logo-color, #EFEBEA)"></path>
<path d="M0 237.87C22.1 239.07 44.01 244.13 64.24 252.93C75.09 257.65 86.27 263.2 95.76 270.24H0V237.87Z" fill="var(--logo-color, #EFEBEA)"></path>
<path d="M468.48 74.09V106.46H368.64V158.73L457.68 158.97V191.34H368.76C368.42 191.55 368.43 191.82 368.39 192.17C367.97 195.73 368.2 201.54 368.15 205.36C367.85 226.99 368.6 248.61 368.4 270.23H332.88V74.09H468.48Z" fill="var(--logo-color, #EFEBEA)"></path>
<path d="M586.32 74.09V186.07C589.25 183.45 591.69 180.31 594.36 177.43C609.42 161.2 624.8 145.31 639.72 129H682.32L632.21 183.75L687.84 270.23H648.6L608.76 208.85C601.13 216.89 593.63 225.08 586.32 233.42V270.23H552.24V74.09H586.32Z" fill="var(--logo-color, #EFEBEA)"></path>
<path d="M827.52 240.27V265.45C824.81 265.9 822.47 267.45 819.75 268.12C806.48 271.41 792.47 267.37 787.86 253.64C787.75 253.3 786.93 249.28 786.49 249.62C785.3 252.76 782.4 255.6 779.88 257.77C752.74 281.08 699.6 272.1 693.4 232.92C689.42 207.78 705.81 188.92 729.56 183.76C745.53 180.29 764.59 180.43 781.08 179.13C781.32 179.11 782.36 178.96 782.42 178.75C782.29 176.05 782.54 173.31 782.42 170.61C781.94 160.01 779.23 151.39 767.81 148.99C756.39 146.59 738.37 148.24 734.04 161.38C733.3 163.64 733.29 166 732.37 168.1H699.85C700.49 152.62 707.74 139.16 721.14 131.22C739.44 120.37 770.14 119.6 789.54 128.02C814.72 138.95 815.6 163.88 815.55 187.9C815.52 202.21 814.7 216.76 815.54 231.05C815.66 233.12 815.39 234.62 816.15 236.68C817.95 241.55 823.28 241.09 827.54 240.28L827.52 240.27ZM782.4 204.3C775.86 204.3 769.35 205.23 762.84 205.74C750.06 206.73 729.12 205.49 726.3 222.23C724.35 233.81 733.6 242.22 744.59 242.92C759.19 243.85 776.16 237.1 780.65 222.1C782.39 216.28 782.15 210.32 782.4 204.3Z" fill="var(--logo-color, #EFEBEA)"></path>
<path d="M527.76 270.24H493.2V128.77H527.4L527.76 129.13V270.24Z" fill="var(--logo-color, #EFEBEA)"></path>
<path d="M528.72 74.09V109.34H492.84C492.76 109.34 492.48 109.02 492.24 109.1V74.09H528.72Z" fill="var(--logo-color, #EFEBEA)"></path>
</g>

</svg>