<svg xmlns="http://www.w3.org/2000/svg" width="3000" height="3162" viewBox="0 0 3000 3162"><title>as-logo-vert-tag-colour</title><g fill="#efebea" fill-rule="evenodd"><path d="M500.068 1437.13v58.59L1115.2 1660.7c14.05 3.75 27.48 5.46 40.71 4.98 13.17-.41 26.47-3 40.24-7.71L2500 1215.34v-40.11h-108.92c-16.44 0-32.53-1.91-48.43-6.14-15.82-4.22-30.76-10.77-44.94-18.96l-311.9-180.052-361.27 361.272c-29.19 29.19-66.7 48.15-107.69 53.54s-82.05-3.28-117.79-23.87l-317.9-183.54c-20.05-11.59-42.42-18.07-65.61-18.07-23.257 0-45.56 6.48-65.612 18.07l-441.754 255.01-7.98 4.64z"/><path d="M500.068 1553.42v30.28c0 58.38 28.918 108.51 79.525 137.7l840.947 485.54c50.54 29.19 108.45 29.19 158.99 0l840.94-485.54c50.54-29.19 79.53-79.32 79.53-137.7v-309.44l-16.03 5.46-1269.95 431.18c-18.28 6.21-37.03 9.89-56.33 10.57-19.31.61-38.27-1.77-56.89-6.82l-584.704-156.87-16.028-4.29zM500.068 1167.25v205.7l7.98-4.64 413.995-239.05c28.509-16.5 60.36-25.71 93.367-25.71 33.01 0 64.8 9.21 93.37 25.71l317.9 183.54c25.17 14.52 54.02 20.73 82.87 16.91 28.78-3.82 55.04-17.32 75.5-37.78l350.7-350.703 5.87-5.865-371.98-214.771c-22.17-12.754-45.91-19.165-69.64-19.165s-47.47 6.411-69.64 19.165L698.336 1143.18c-14.255 8.25-28.373 14.25-43.037 18.14-14.8 3.95-30.077 5.86-46.31 5.86H500z"/><path d="M1420.47 21.917 579.525 507.453C528.987 536.644 500 586.773 500 645.155v466.375h108.989c10.776 0 21.484-1.16 31.919-3.96 10.436-2.8 20.325-7.09 29.669-12.48l732.033-422.585c29.73-17.188 62.95-26.736 97.39-26.736s67.59 9.548 97.39 26.736l732.03 422.585c9.35 5.39 19.24 9.68 29.67 12.48 10.44 2.8 21.14 3.96 31.92 3.96h108.92V645.155c0-58.382-28.92-108.511-79.52-137.702L1579.46 21.917c-50.54-29.191-108.45-29.191-158.99 0"/><path fill-rule="nonzero" d="M0 2825.86v-216.89c0-9.43 2.312-18.18 6.936-26.05 4.692-7.94 10.948-14.18 18.904-18.86 7.956-4.69 16.728-7.06 26.248-7.06h164.966c9.52 0 18.292 2.37 26.18 7.06 7.888 4.68 14.212 10.92 19.04 18.86 4.828 7.87 7.208 16.62 7.208 26.05v216.89h-49.98v-90.23H49.368v90.23zm49.368-139.75h170.134v-74.97c0-1.15-.408-2.24-1.36-3.19-.816-.95-1.836-1.36-3.128-1.36H53.924c-1.156 0-2.244.41-3.196 1.36s-1.36 1.97-1.36 3.19zm337.073 139.75c-9.52 0-18.292-2.37-26.18-7.05s-14.212-10.92-18.904-18.86c-4.692-7.87-7.072-16.62-7.072-26.12V2557h49.436v214.79c0 1.22.408 2.31 1.292 3.26.952.95 1.972 1.36 3.264 1.36h161.091c1.224 0 2.312-.41 3.196-1.36.952-.95 1.36-1.97 1.36-3.26V2557h49.911v216.83c0 9.5-2.38 18.25-7.208 26.12-4.76 7.94-11.016 14.18-18.972 18.86-7.888 4.68-16.523 7.05-25.975 7.05zm332.449 0c-9.452 0-18.224-2.37-26.179-7.05-7.956-4.68-14.212-10.92-18.904-18.86-4.692-7.87-7.072-16.62-7.072-26.12v-20.49h49.435v18.45c0 1.22.408 2.31 1.292 3.26.952.95 1.972 1.36 3.332 1.36h161.023c1.224 0 2.312-.41 3.196-1.36.952-.95 1.36-1.97 1.36-3.26v-51.08c0-1.22-.408-2.31-1.36-3.12-.884-.89-1.904-1.29-3.196-1.29H718.958c-9.452 0-18.224-2.38-26.18-7.06-7.955-4.75-14.211-10.99-18.903-18.86s-7.072-16.55-7.072-26.12v-55.29c0-9.43 2.38-18.18 7.072-26.05 4.692-7.94 10.948-14.18 18.903-18.86 7.956-4.69 16.728-7.06 26.18-7.06h165.239c9.452 0 18.088 2.37 25.976 7.06 7.888 4.68 14.212 10.92 18.972 18.86 4.828 7.87 7.14 16.62 7.14 26.05v20.55h-49.912v-18.45c0-1.15-.408-2.24-1.36-3.19-.884-.95-1.904-1.35-3.196-1.35H720.794c-1.292 0-2.38.4-3.332 1.35-.884.95-1.292 1.97-1.292 3.19v51.16c0 1.15.408 2.23 1.292 3.05.952.88 1.972 1.29 3.332 1.29h163.403c9.452 0 18.088 2.37 25.976 7.12 7.888 4.68 14.212 10.92 18.972 18.79 4.828 7.87 7.14 16.56 7.14 26.12v55.23c0 9.5-2.38 18.25-7.14 26.12-4.76 7.94-11.016 14.18-18.972 18.86-7.888 4.68-16.524 7.05-25.976 7.05H718.89m280.974 0v-268.45h217.126c9.45 0 18.22 2.37 26.11 7.12 7.95 4.68 14.35 10.99 19.11 19 4.76 7.93 7.14 16.55 7.14 25.98v72.32c0 9.43-2.38 18.12-7.14 26.05-4.76 7.94-11.09 14.18-19.11 19-7.89 4.68-16.66 7.06-26.11 7.06l-167.69.27V2826h-49.436zm53.996-141.79h161.15c1.16 0 2.25-.41 3.06-1.22.96-.88 1.36-1.9 1.36-3.12v-68.59c0-1.15-.4-2.24-1.36-3.12-.81-.88-1.9-1.29-3.06-1.29h-161.15c-1.3 0-2.38.41-3.34 1.29-.81.88-1.22 1.9-1.22 3.12v68.59c0 1.15.41 2.24 1.22 3.12.96.81 1.98 1.22 3.34 1.22m267.03 141.79v-216.89c0-9.43 2.31-18.18 6.94-26.05 4.69-7.94 10.94-14.18 18.9-18.86 7.96-4.69 16.73-7.06 26.25-7.06h164.96c9.52 0 18.3 2.37 26.18 7.06 7.89 4.68 14.22 10.92 19.04 18.86 4.83 7.87 7.21 16.62 7.21 26.05v216.89h-49.98v-90.23h-170.13v90.23zm49.37-139.75h170.13v-74.97c0-1.15-.41-2.24-1.36-3.19-.81-.95-1.83-1.36-3.13-1.36h-161.09c-1.15 0-2.24.41-3.19 1.36s-1.36 1.97-1.36 3.19zm382.09 139.75v-219.33h-109.89V2557h269.48v49.53h-109.82v219.33h-49.77m205.29 0V2557h48.96v268.86zm159.66 0c-9.52 0-18.29-2.37-26.18-7.05s-14.21-10.92-18.9-18.86c-4.7-7.87-7.08-16.62-7.08-26.12v-164.86c0-9.43 2.38-18.18 7.08-26.05 4.69-7.94 10.94-14.18 18.9-18.86 7.89-4.69 16.66-7.06 26.18-7.06h165.24c9.38 0 18.09 2.37 25.97 7.06 7.89 4.68 14.22 10.92 18.98 18.86 4.82 7.87 7.2 16.62 7.2 26.05v164.86c0 9.5-2.38 18.25-7.2 26.12-4.76 7.94-11.02 14.18-18.98 18.86-7.88 4.68-16.52 7.05-25.97 7.05zm1.84-49.45h161.09c1.22 0 2.31-.41 3.19-1.36.95-.95 1.36-1.97 1.36-3.26v-160.72c0-1.15-.41-2.24-1.36-3.19-.88-.95-1.9-1.35-3.19-1.35h-161.09c-1.23 0-2.32.4-3.27 1.35-.88.95-1.29 1.97-1.29 3.19v160.72c0 1.22.41 2.31 1.29 3.26.95.95 1.97 1.36 3.27 1.36m331.02 49.45c-9.52 0-18.3-2.37-26.18-7.05-7.89-4.68-14.22-10.92-18.91-18.86-4.69-7.87-7.07-16.62-7.07-26.12V2557h49.44v214.79c0 1.22.4 2.31 1.29 3.26.95.95 1.97 1.36 3.26 1.36h161.09c1.23 0 2.32-.41 3.2-1.36.95-.95 1.36-1.97 1.36-3.26V2557h49.91v216.83c0 9.5-2.38 18.25-7.21 26.12-4.76 7.94-11.01 14.18-18.97 18.86-7.89 4.68-16.52 7.05-25.97 7.05zm332.45 0c-9.46 0-18.23-2.37-26.18-7.05-7.96-4.68-14.22-10.92-18.91-18.86-4.69-7.87-7.07-16.62-7.07-26.12v-20.49h49.44v18.45c0 1.22.4 2.31 1.29 3.26.95.95 1.97 1.36 3.33 1.36h161.02c1.23 0 2.31-.41 3.2-1.36.95-.95 1.36-1.97 1.36-3.26v-51.08c0-1.22-.41-2.31-1.36-3.12-.89-.89-1.91-1.29-3.2-1.29h-162.86c-9.45 0-18.22-2.38-26.18-7.06-7.95-4.75-14.21-10.99-18.9-18.86s-7.07-16.55-7.07-26.12v-55.29c0-9.43 2.38-18.18 7.07-26.05 4.69-7.94 10.95-14.18 18.9-18.86 7.96-4.69 16.73-7.06 26.18-7.06h165.24c9.45 0 18.09 2.37 25.98 7.06 7.89 4.68 14.21 10.92 18.97 18.86 4.83 7.87 7.14 16.62 7.14 26.05v20.55h-49.91v-18.45c0-1.15-.41-2.24-1.36-3.19-.89-.95-1.91-1.35-3.2-1.35h-161.02c-1.29 0-2.38.4-3.33 1.35-.89.95-1.29 1.97-1.29 3.19v51.16c0 1.15.4 2.23 1.29 3.05.95.88 1.97 1.29 3.33 1.29h163.4c9.45 0 18.09 2.37 25.98 7.12 7.89 4.68 14.21 10.92 18.97 18.79 4.83 7.87 7.14 16.56 7.14 26.12v55.23c0 9.5-2.38 18.25-7.14 26.12-4.76 7.94-11.02 14.18-18.97 18.86-7.89 4.68-16.53 7.05-25.98 7.05h-165.3M2910.38 3010.67h10.19l25.14 65.72c1.52 3.87 2.86 7.46 4 10.76 1.21 3.24 2.26 6.22 3.14 8.95.89 2.67 1.62 5.12 2.19 7.34h.58c.95-2.92 2.22-6.67 3.81-11.24 1.58-4.64 3.39-9.78 5.42-15.43l24.86-66.1H3000l-47.24 122.96c-2.29 5.97-4.8 11.02-7.53 15.14-2.73 4.19-5.93 7.34-9.62 9.43-3.68 2.16-8.12 3.24-13.33 3.24-2.35 0-4.48-.19-6.38-.57-1.91-.32-3.75-.76-5.52-1.33v-8.29c1.65.51 3.33.92 5.04 1.24 1.78.38 3.72.57 5.81.57 3.62 0 6.73-.76 9.34-2.29 2.66-1.46 5.04-3.74 7.14-6.85s4.06-7.08 5.91-11.91l7.04-18.38zM2857.8 3008.67c11.62 0 20.54 3.05 26.76 9.14 6.23 6.1 9.34 15.66 9.34 28.67v67.72h-9.53v-67.15c0-10.28-2.35-17.84-7.04-22.66-4.7-4.83-11.53-7.24-20.48-7.24-11.37 0-20.07 3.33-26.1 10-5.97 6.6-8.95 16.6-8.95 30v57.05h-9.62v-103.53h7.81l1.43 18.86h.57c1.84-3.87 4.35-7.37 7.52-10.48 3.24-3.17 7.21-5.68 11.91-7.52 4.7-1.91 10.16-2.86 16.38-2.86M2744.94 3008.86c11.36 0 19.87 2.86 25.52 8.57 5.65 5.72 8.48 14.83 8.48 27.34v69.43h-7.43l-1.72-18.1h-.57a45.9 45.9 0 0 1-8.09 10.38c-3.18 2.99-7.08 5.34-11.72 7.05-4.57 1.72-10.16 2.57-16.76 2.57-6.67 0-12.38-1.11-17.14-3.33-4.7-2.22-8.35-5.46-10.96-9.71-2.54-4.26-3.81-9.43-3.81-15.53 0-10.29 4.26-18.1 12.77-23.43 8.5-5.4 20.73-8.44 36.66-9.14l19.24-.95v-7.53c0-10.6-2.09-18.16-6.28-22.67s-10.38-6.76-18.57-6.76c-5.34 0-10.48.7-15.43 2.1-4.89 1.33-9.88 3.27-14.96 5.81l-3.05-8c4.96-2.35 10.26-4.29 15.91-5.81 5.71-1.53 11.68-2.29 17.91-2.29m24.38 52.67-18.1.76q-19.71.96-30 7.05c-6.86 4.06-10.29 10.16-10.29 18.29 0 6.54 2.04 11.55 6.1 15.04 4.13 3.5 9.84 5.24 17.14 5.24 11.37 0 20.04-3.24 26.01-9.71 6.03-6.48 9.08-15.3 9.14-26.48zM2638.45 3008.67c13.34 0 23.66 4.48 30.96 13.43 7.36 8.95 11.05 22.16 11.05 39.62 0 11.68-1.75 21.59-5.24 29.72-3.49 8.06-8.48 14.19-14.96 18.38-6.41 4.19-14.12 6.29-23.14 6.29-6.22 0-11.65-.93-16.29-2.77q-6.855-2.85-11.43-7.62c-3.04-3.23-5.39-6.79-7.04-10.66h-.67c.19 3.62.35 7.39.48 11.33.12 3.94.19 7.65.19 11.14v42.48h-9.72v-149.34h8l1.14 20.67h.58c1.71-3.94 4.12-7.65 7.23-11.15 3.12-3.49 7.05-6.28 11.81-8.38 4.77-2.09 10.45-3.14 17.05-3.14m-1.23 8.48c-7.81 0-14.32 1.71-19.53 5.14-5.14 3.37-8.98 8.32-11.52 14.86-2.48 6.47-3.75 14.41-3.81 23.81v1.62c0 10.09 1.23 18.51 3.71 25.24 2.54 6.66 6.32 11.65 11.33 14.95 5.08 3.3 11.37 4.95 18.86 4.95 7.37 0 13.59-1.81 18.67-5.43 5.08-3.61 8.95-8.85 11.62-15.71s4-15.18 4-24.95c0-14.54-2.79-25.59-8.38-33.15-5.53-7.56-13.84-11.33-24.95-11.33M2527.02 3008.67c9.97 0 17.84 2.89 23.62 8.67q8.67 8.67 8.67 27.33v69.53h-9.43v-69.15c0-9.58-2.19-16.63-6.58-21.14-4.38-4.51-10.16-6.76-17.33-6.76-9.84 0-17.56 2.89-23.14 8.66-5.53 5.72-8.29 14.73-8.29 27.05v61.34h-9.53v-69.15c0-6.41-1.01-11.65-3.04-15.71-1.97-4.13-4.73-7.18-8.29-9.15-3.56-2.03-7.75-3.04-12.57-3.04-6.41 0-11.97 1.33-16.67 4-4.7 2.6-8.32 6.66-10.86 12.19-2.54 5.46-3.81 12.41-3.81 20.86v60h-9.62v-103.53h7.81l1.43 16.95h.57c1.72-3.36 4-6.47 6.86-9.33s6.38-5.18 10.57-6.95c4.26-1.78 9.24-2.67 14.96-2.67 7.43 0 13.71 1.68 18.86 5.05 5.2 3.3 8.82 8.22 10.85 14.76h.67c2.79-6.22 7.11-11.08 12.95-14.57 5.91-3.49 13.02-5.24 21.34-5.24M2391.58 3062.29c0 8-.98 15.3-2.95 21.91q-2.955 9.81-8.76 16.95c-3.88 4.76-8.7 8.45-14.48 11.05-5.72 2.6-12.38 3.91-20 3.91-7.24 0-13.69-1.27-19.34-3.81-5.65-2.61-10.44-6.29-14.38-11.05-3.87-4.76-6.83-10.42-8.86-16.96-2.03-6.6-3.04-13.93-3.04-22 0-11.11 1.84-20.67 5.52-28.67 3.75-8.06 9.08-14.22 16-18.47q10.47-6.48 25.05-6.48c10.03 0 18.38 2.29 25.05 6.86 6.73 4.51 11.78 10.79 15.14 18.86 3.37 8.06 5.05 17.36 5.05 27.9m-81.91 0c0 9.08 1.3 17.02 3.91 23.81 2.6 6.8 6.54 12.1 11.81 15.91 5.33 3.81 12.06 5.71 20.19 5.71 8.32 0 15.14-1.9 20.48-5.71 5.33-3.81 9.27-9.14 11.81-16s3.81-14.76 3.81-23.72c0-8.7-1.21-16.44-3.62-23.24-2.42-6.79-6.23-12.12-11.43-16-5.21-3.93-12-5.9-20.39-5.9q-18 0-27.33 12c-6.16 8-9.24 19.05-9.24 33.14M2254.43 3116.11q-15.435 0-26.1-6.39c-7.05-4.31-12.38-10.44-16-18.38-3.55-8-5.33-17.46-5.33-28.38 0-11.37 2.06-21.08 6.19-29.15 4.13-8.12 9.94-14.35 17.43-18.66 7.49-4.32 16.28-6.48 26.38-6.48 4.95 0 9.56.44 13.81 1.33 4.26.89 8.1 2.13 11.53 3.72l-2.58 8.47a55 55 0 0 0-11.33-3.61c-4-.83-7.84-1.24-11.52-1.24-8.51 0-15.75 1.87-21.72 5.62q-8.865 5.52-13.62 15.81c-3.11 6.79-4.67 14.82-4.67 24.09 0 8.7 1.34 16.42 4 23.15 2.67 6.67 6.77 11.94 12.29 15.81 5.52 3.81 12.6 5.71 21.24 5.71 5.02 0 9.78-.5 14.29-1.52 4.57-1.02 8.73-2.32 12.47-3.91v8.77c-3.36 1.52-7.27 2.76-11.71 3.71-4.38 1.02-9.4 1.53-15.05 1.53M2127.85 3114.2h-9.72V2966h9.72zM2050.8 3008.86c11.36 0 19.87 2.86 25.52 8.57 5.65 5.72 8.48 14.83 8.48 27.34v69.43h-7.43l-1.71-18.1h-.58a45.9 45.9 0 0 1-8.09 10.38c-3.18 2.99-7.08 5.34-11.72 7.05-4.57 1.72-10.16 2.57-16.76 2.57-6.67 0-12.38-1.11-17.14-3.33-4.7-2.22-8.35-5.46-10.96-9.71-2.54-4.26-3.81-9.43-3.81-15.53 0-10.29 4.26-18.1 12.77-23.43 8.5-5.4 20.73-8.44 36.67-9.14l19.23-.95v-7.53c0-10.6-2.09-18.16-6.28-22.67s-10.38-6.76-18.57-6.76c-5.34 0-10.48.7-15.43 2.1-4.89 1.33-9.88 3.27-14.96 5.81l-3.04-8c4.95-2.35 10.25-4.29 15.9-5.81 5.72-1.53 11.68-2.29 17.91-2.29m24.38 52.67-18.1.76q-19.71.96-30 7.05c-6.86 4.06-10.29 10.16-10.29 18.29 0 6.54 2.04 11.55 6.1 15.04 4.13 3.5 9.84 5.24 17.14 5.24 11.37 0 20.04-3.24 26.01-9.71 6.03-6.48 9.08-15.3 9.14-26.48zM1980.03 3010.67v103.53h-9.62v-103.53zm-4.67-38.29c2.42 0 4.19.73 5.34 2.19 1.14 1.4 1.71 3.3 1.71 5.72 0 2.41-.57 4.31-1.71 5.71-1.15 1.4-2.92 2.1-5.34 2.1-2.28 0-4-.7-5.14-2.1s-1.71-3.3-1.71-5.71c0-2.42.57-4.32 1.71-5.72 1.14-1.46 2.86-2.19 5.14-2.19M1933.08 3107.82c2.98 0 5.74-.22 8.28-.67 2.6-.44 4.89-1.01 6.86-1.71v8c-2.03.7-4.41 1.3-7.14 1.81-2.73.57-5.75.86-9.05.86-5.84 0-10.7-1.08-14.57-3.24-3.88-2.23-6.8-5.56-8.77-10-1.97-4.51-2.95-10.23-2.95-17.15v-67.05h-15.43v-5.71l15.33-2.96 3.34-24.38h6.38v25.05h32.29v8h-32.29v66.48c0 7.43 1.36 13.08 4.1 16.95 2.79 3.81 7.33 5.72 13.62 5.72M1837.83 3008.86c11.37 0 19.88 2.86 25.53 8.57 5.65 5.72 8.47 14.83 8.47 27.34v69.43h-7.43l-1.71-18.1h-.57a45.6 45.6 0 0 1-8.1 10.38c-3.17 2.99-7.08 5.34-11.71 7.05-4.57 1.72-10.16 2.57-16.77 2.57-6.66 0-12.38-1.11-17.14-3.33-4.7-2.22-8.35-5.46-10.95-9.71-2.54-4.26-3.81-9.43-3.81-15.53 0-10.29 4.25-18.1 12.76-23.43 8.51-5.4 20.73-8.44 36.67-9.14l19.24-.95v-7.53c0-10.6-2.1-18.16-6.29-22.67s-10.38-6.76-18.57-6.76c-5.33 0-10.48.7-15.43 2.1-4.89 1.33-9.87 3.27-14.95 5.81l-3.05-8c4.95-2.35 10.25-4.29 15.91-5.81 5.71-1.53 11.68-2.29 17.9-2.29m24.38 52.67-18.09.76q-19.725.96-30 7.05c-6.86 4.06-10.29 10.16-10.29 18.29 0 6.54 2.03 11.55 6.09 15.04 4.13 3.5 9.85 5.24 17.15 5.24 11.36 0 20.03-3.24 26-9.71 6.03-6.48 9.08-15.3 9.14-26.48zM1731.35 3008.67c13.33 0 23.65 4.48 30.95 13.43 7.37 8.95 11.05 22.16 11.05 39.62 0 11.68-1.75 21.59-5.24 29.72-3.49 8.06-8.47 14.19-14.95 18.38-6.41 4.19-14.13 6.29-23.15 6.29-6.22 0-11.65-.93-16.28-2.77q-6.855-2.85-11.43-7.62c-3.05-3.23-5.4-6.79-7.05-10.66h-.67c.19 3.62.35 7.39.48 11.33s.19 7.65.19 11.14v42.48h-9.71v-149.34h8l1.14 20.67h.57c1.71-3.94 4.13-7.65 7.24-11.15 3.11-3.49 7.05-6.28 11.81-8.38 4.76-2.09 10.44-3.14 17.05-3.14m-1.24 8.48c-7.81 0-14.32 1.71-19.53 5.14-5.14 3.37-8.98 8.32-11.52 14.86-2.48 6.47-3.75 14.41-3.81 23.81v1.62c0 10.09 1.24 18.51 3.72 25.24 2.53 6.66 6.31 11.65 11.33 14.95 5.08 3.3 11.36 4.95 18.86 4.95 7.36 0 13.59-1.81 18.67-5.43 5.08-3.61 8.95-8.85 11.62-15.71 2.66-6.86 4-15.18 4-24.95 0-14.54-2.8-25.59-8.39-33.15-5.52-7.56-13.84-11.33-24.95-11.33M1659.34 3087.06c0 6.15-1.55 11.43-4.66 15.81-3.05 4.31-7.53 7.62-13.43 9.9-5.91 2.22-13.18 3.34-21.81 3.34-7.18 0-13.59-.64-19.24-1.91s-10.38-2.83-14.19-4.67v-9.52c4.76 2.35 10.03 4.25 15.81 5.71 5.77 1.46 11.71 2.19 17.81 2.19 10.66 0 18.35-1.81 23.05-5.42 4.69-3.62 7.04-8.58 7.04-14.86 0-4.13-1.17-7.53-3.52-10.19-2.29-2.73-5.59-5.08-9.91-7.05-4.31-1.97-9.52-3.97-15.62-6-6.35-2.16-12-4.29-16.95-6.38-4.89-2.16-8.73-4.99-11.52-8.48-2.8-3.56-4.19-8.38-4.19-14.48 0-8.32 3.33-14.79 10-19.43 6.66-4.63 15.62-6.95 26.85-6.95 6.23 0 12.01.6 17.34 1.81 5.4 1.14 10.29 2.63 14.67 4.48l-3.43 8.19c-3.94-1.84-8.48-3.34-13.62-4.48a71 71 0 0 0-15.43-1.71c-8.45 0-15.05 1.49-19.81 4.47-4.76 2.99-7.15 7.37-7.15 13.15 0 4.44 1.15 7.93 3.43 10.47 2.29 2.48 5.56 4.57 9.81 6.29q6.39 2.475 15.15 5.52c6.03 2.1 11.59 4.29 16.67 6.58 5.14 2.28 9.23 5.23 12.28 8.85s4.57 8.54 4.57 14.77M1566 3062.29c0 8-.98 15.3-2.95 21.91q-2.955 9.81-8.76 16.95c-3.87 4.76-8.7 8.45-14.48 11.05-5.71 2.6-12.38 3.91-20 3.91-7.24 0-13.68-1.27-19.33-3.81-5.65-2.61-10.45-6.29-14.39-11.05-3.87-4.76-6.82-10.42-8.85-16.96-2.04-6.6-3.05-13.93-3.05-22 0-11.11 1.84-20.67 5.52-28.67 3.75-8.06 9.08-14.22 16-18.47q10.485-6.48 25.05-6.48c10.04 0 18.39 2.29 25.05 6.86 6.73 4.51 11.78 10.79 15.15 18.86q5.04 12.09 5.04 27.9m-81.91 0c0 9.08 1.31 17.02 3.91 23.81 2.6 6.8 6.54 12.1 11.81 15.91 5.33 3.81 12.06 5.71 20.19 5.71 8.32 0 15.15-1.9 20.48-5.71s9.27-9.14 11.81-16 3.81-14.76 3.81-23.72c0-8.7-1.21-16.44-3.62-23.24-2.41-6.79-6.22-12.12-11.43-16-5.21-3.93-12-5.9-20.38-5.9-12 0-21.11 4-27.34 12-6.16 8-9.24 19.05-9.24 33.14M1412.09 3008.67c8.83 0 16.16 2.06 22 6.19q8.865 6.195 13.14 16.95c2.93 7.18 4.39 15.4 4.39 24.67v6.96h-74.77q0 21.33 9.81 32.76 9.9 11.43 28.29 11.43c6.41 0 11.97-.51 16.66-1.53 4.77-1.07 10.04-2.88 15.82-5.42v8.85c-5.08 2.29-10.16 3.94-15.24 4.96-5.08 1.08-10.93 1.62-17.53 1.62-10.48 0-19.27-2.16-26.38-6.48-7.05-4.38-12.38-10.54-16-18.48q-5.34-11.91-5.34-27.81c0-10.35 1.72-19.65 5.15-27.91 3.49-8.25 8.57-14.76 15.24-19.52 6.73-4.83 14.98-7.24 24.76-7.24m-.1 8.29q-14.85 0-24.09 9.9-9.15 9.81-10.77 28.38h64.49c0-7.55-1.08-14.22-3.24-20s-5.43-10.25-9.81-13.43c-4.32-3.23-9.85-4.85-16.58-4.85M1298.94 3161.06c-13.02 0-23.14-2.51-30.38-7.52-7.18-5.02-10.77-12.04-10.77-21.05 0-6.99 2.19-13.02 6.58-18.1 4.38-5.02 10.31-8.03 17.81-9.05-2.99-1.39-5.43-3.3-7.34-5.71-1.84-2.41-2.76-5.21-2.76-8.38 0-3.56 1.11-6.86 3.33-9.91 2.23-3.11 5.56-5.97 10-8.57-5.96-2.16-10.66-5.81-14.09-10.95-3.43-5.21-5.14-11.46-5.14-18.77 0-6.98 1.49-13.05 4.47-18.19 2.99-5.14 7.21-9.11 12.67-11.9 5.52-2.86 12.03-4.29 19.52-4.29 2.29 0 4.35.06 6.2.19 1.9.13 3.65.35 5.23.67 1.59.25 3.02.6 4.29 1.04h33.43v6.86l-21.33 1.43c2.79 3.37 4.89 7.02 6.28 10.95 1.4 3.88 2.1 7.97 2.1 12.29q0 15.435-9.72 24.48c-6.47 6.03-15.49 9.05-27.05 9.05-3.17 0-6.28-.29-9.33-.86-3.87 2.29-6.83 4.6-8.86 6.95-2.03 2.29-3.05 5.15-3.05 8.57 0 2.16.64 3.94 1.91 5.34 1.27 1.33 3.11 2.38 5.52 3.14 2.42.7 5.37 1.05 8.86 1.05h18.19c11.24 0 19.84 2.28 25.81 6.86 5.97 4.57 8.96 11.3 8.96 20.19 0 10.86-4.48 19.27-13.43 25.24-8.89 5.97-21.53 8.95-37.91 8.95m.67-8.1c9.08 0 16.63-.98 22.66-2.95 6.1-1.97 10.67-4.89 13.72-8.76 3.05-3.81 4.57-8.54 4.57-14.19 0-4.64-1.11-8.22-3.33-10.76s-5.37-4.29-9.43-5.24c-4.07-1.02-8.86-1.53-14.38-1.53h-17.34c-5.52 0-10.44.77-14.76 2.29-4.32 1.46-7.68 3.81-10.1 7.05-2.35 3.24-3.52 7.55-3.52 12.95q0 10.38 8.1 15.72c5.46 3.62 13.39 5.42 23.81 5.42m3.04-85.05c8.58 0 15.15-2.16 19.72-6.47 4.57-4.32 6.86-10.58 6.86-18.77q0-13.14-7.05-19.71c-4.7-4.38-11.27-6.58-19.72-6.58-8.19 0-14.63 2.35-19.33 7.05-4.64 4.64-6.95 11.18-6.95 19.62 0 7.88 2.22 14 6.66 18.39 4.45 4.31 11.05 6.47 19.81 6.47M1152.84 3008.67c8.82 0 16.15 2.06 22 6.19q8.85 6.195 13.14 16.95c2.92 7.18 4.38 15.4 4.38 24.67v6.96h-74.77q0 21.33 9.81 32.76 9.915 11.43 28.29 11.43c6.42 0 11.97-.51 16.67-1.53 4.76-1.07 10.03-2.88 15.81-5.42v8.85c-5.08 2.29-10.16 3.94-15.24 4.96q-7.62 1.62-17.52 1.62c-10.48 0-19.27-2.16-26.39-6.48-7.04-4.38-12.38-10.54-16-18.48-3.55-7.94-5.33-17.21-5.33-27.81 0-10.35 1.71-19.65 5.14-27.91 3.49-8.25 8.57-14.76 15.24-19.52 6.73-4.83 14.99-7.24 24.77-7.24m-.1 8.29c-9.91 0-17.94 3.3-24.1 9.9-6.09 6.54-9.68 16-10.76 28.38h64.48c0-7.55-1.08-14.22-3.24-20s-5.43-10.25-9.81-13.43c-4.32-3.23-9.84-4.85-16.57-4.85M1046.45 3114.2l-39.72-103.53h10.19l26.57 70.58c1.66 4.25 3.12 8.35 4.39 12.28 1.33 3.88 2.44 7.4 3.33 10.57h.48c1.01-3.17 2.15-6.73 3.42-10.66 1.34-3.94 2.8-8 4.39-12.19l26.57-70.58h10.29l-39.82 103.53zM989.301 3010.67v103.53h-9.62v-103.53zm-4.667-38.29q3.62 0 5.334 2.19c1.143 1.4 1.714 3.3 1.714 5.72 0 2.41-.571 4.31-1.714 5.71q-1.715 2.1-5.334 2.1-3.429 0-5.143-2.1c-1.143-1.4-1.715-3.3-1.715-5.71 0-2.42.572-4.32 1.715-5.72q1.714-2.19 5.143-2.19M942.346 3107.82c2.984 0 5.746-.22 8.286-.67q3.905-.66 6.857-1.71v8c-2.031.7-4.412 1.3-7.143 1.81-2.73.57-5.746.86-9.048.86q-8.763 0-14.572-3.24c-3.874-2.23-6.794-5.56-8.763-10-1.968-4.51-2.952-10.23-2.952-17.15v-67.05h-15.43v-5.71l15.334-2.96 3.334-24.38h6.381v25.05h32.288v8H924.63v66.48q0 11.145 4.096 16.95c2.794 3.81 7.334 5.72 13.62 5.72M847.101 3008.86c11.366 0 19.875 2.86 25.526 8.57 5.651 5.72 8.477 14.83 8.477 27.34v69.43h-7.429l-1.715-18.1h-.571a45.8 45.8 0 0 1-8.096 10.38q-4.762 4.485-11.715 7.05c-4.572 1.72-10.159 2.57-16.763 2.57q-10 0-17.144-3.33c-4.699-2.22-8.35-5.46-10.953-9.71-2.54-4.26-3.81-9.43-3.81-15.53q0-15.435 12.763-23.43c8.508-5.4 20.731-8.44 36.669-9.14l19.239-.95v-7.53c0-10.6-2.095-18.16-6.286-22.67s-10.381-6.76-18.572-6.76q-8 0-15.43 2.1c-4.889 1.33-9.874 3.27-14.953 5.81l-3.048-8c4.953-2.35 10.254-4.29 15.906-5.81 5.714-1.53 11.683-2.29 17.905-2.29m24.383 52.67-18.096.76q-19.716.96-30.002 7.05c-6.858 4.06-10.287 10.16-10.287 18.29 0 6.54 2.032 11.55 6.096 15.04 4.127 3.5 9.842 5.24 17.144 5.24 11.366 0 20.033-3.24 26.002-9.71 6.032-6.48 9.079-15.3 9.143-26.48zM741.285 3008.67c11.62 0 20.541 3.05 26.764 9.14 6.222 6.1 9.334 15.66 9.334 28.67v67.72h-9.525v-67.15c0-10.28-2.349-17.84-7.048-22.66-4.699-4.83-11.524-7.24-20.477-7.24-11.366 0-20.065 3.33-26.097 10q-8.953 9.9-8.953 30v57.05h-9.62v-103.53h7.81l1.429 18.86h.571c1.842-3.87 4.35-7.37 7.525-10.48 3.238-3.17 7.206-5.68 11.905-7.52 4.699-1.91 10.159-2.86 16.382-2.86M566.321 3116.1c-14.159 0-24.953-4.44-32.383-13.33-7.365-8.95-11.048-21.97-11.048-39.05q0-26.865 11.715-40.95 11.715-14.1 32.669-14.1 8.953 0 15.525 2.76 6.666 2.76 11.143 7.53a33.2 33.2 0 0 1 7.048 10.66h.762c-.254-3.36-.444-6.98-.571-10.85-.127-3.88-.191-7.43-.191-10.67V2966h9.62v148.2h-7.81l-1.238-18.95h-.572q-2.571 5.715-7.143 10.47-4.476 4.77-11.239 7.62-6.762 2.76-16.287 2.76m1.048-8.38c12.191 0 20.859-3.77 26.002-11.33 5.143-7.62 7.715-18.48 7.715-32.57v-1.53c0-14.6-2.572-25.78-7.715-33.52-5.143-7.81-13.525-11.72-25.145-11.72q-17.239 0-26.382 12-9.048 12-9.048 34.86 0 21.525 8.476 32.67c5.715 7.43 14.414 11.14 26.097 11.14M494.032 3010.67v103.53h-7.811l-1.428-18.67h-.572q-2.667 5.715-7.524 10.38c-3.238 3.12-7.207 5.59-11.905 7.43-4.699 1.84-10.16 2.77-16.382 2.77-7.937 0-14.605-1.37-20.002-4.1q-8-4.185-12.096-12.57c-2.73-5.59-4.095-12.57-4.095-20.96v-67.81h9.619v66.86q0 15.525 6.953 22.86c4.699 4.89 11.557 7.33 20.573 7.33q11.43 0 19.144-4.38c5.207-2.92 9.144-7.33 11.81-13.24 2.731-5.97 4.096-13.39 4.096-22.28v-57.15zM384.977 3062.29c0 8-.984 15.3-2.953 21.91q-2.952 9.81-8.762 16.95c-3.873 4.76-8.699 8.45-14.477 11.05-5.715 2.6-12.382 3.91-20.001 3.91q-10.859 0-19.335-3.81c-5.651-2.61-10.445-6.29-14.382-11.05-3.873-4.76-6.826-10.42-8.858-16.96-2.031-6.6-3.047-13.93-3.047-22 0-11.11 1.841-20.67 5.524-28.67 3.746-8.06 9.08-14.22 16.001-18.47q10.476-6.48 25.049-6.48c10.032 0 18.382 2.29 25.049 6.86 6.731 4.51 11.779 10.79 15.144 18.86q5.048 12.09 5.048 27.9m-81.91 0c0 9.08 1.302 17.02 3.905 23.81 2.603 6.8 6.54 12.1 11.81 15.91 5.334 3.81 12.065 5.71 20.192 5.71 8.318 0 15.144-1.9 20.478-5.71 5.333-3.81 9.27-9.14 11.81-16s3.81-14.76 3.81-23.72c0-8.7-1.207-16.44-3.62-23.24-2.413-6.79-6.222-12.12-11.429-16-5.207-3.93-12.001-5.9-20.382-5.9q-18.002 0-27.335 12c-6.159 8-9.239 19.05-9.239 33.14M264.684 3114.2h-9.715V2966h9.715zM203.632 3116.11q-15.43 0-26.097-6.39c-7.048-4.31-12.382-10.44-16.001-18.38q-5.334-12-5.334-28.38c0-11.37 2.064-21.08 6.191-29.15 4.127-8.12 9.937-14.35 17.43-18.66q11.238-6.48 26.382-6.48c4.953 0 9.557.44 13.811 1.33q6.381 1.335 11.524 3.72l-2.571 8.47a55 55 0 0 0-11.334-3.61c-4.001-.83-7.842-1.24-11.525-1.24-8.508 0-15.747 1.87-21.716 5.62q-8.858 5.52-13.619 15.81-4.667 10.185-4.667 24.09c0 8.7 1.333 16.42 4 23.15q4 10.005 12.286 15.81c5.524 3.81 12.604 5.71 21.24 5.71 5.016 0 9.778-.5 14.286-1.52 4.572-1.02 8.731-2.32 12.477-3.91v8.77c-3.365 1.52-7.27 2.76-11.715 3.71q-6.571 1.53-15.048 1.53M44.193 3008.86c11.366 0 19.875 2.86 25.526 8.57 5.65 5.72 8.476 14.83 8.476 27.34v69.43h-7.429l-1.714-18.1h-.572a45.8 45.8 0 0 1-8.095 10.38q-4.762 4.485-11.715 7.05c-4.572 1.72-10.16 2.57-16.763 2.57q-10 0-17.144-3.33c-4.699-2.22-8.35-5.46-10.953-9.71-2.54-4.26-3.81-9.43-3.81-15.53q0-15.435 12.763-23.43c8.508-5.4 20.731-8.44 36.669-9.14l19.239-.95v-7.53c0-10.6-2.095-18.16-6.286-22.67s-10.382-6.76-18.573-6.76q-8 0-15.43 2.1c-4.888 1.33-9.873 3.27-14.953 5.81l-3.047-8c4.952-2.35 10.254-4.29 15.905-5.81 5.715-1.53 11.684-2.29 17.906-2.29m24.383 52.67-18.097.76q-19.715.96-30.001 7.05c-6.858 4.06-10.287 10.16-10.287 18.29 0 6.54 2.032 11.55 6.096 15.04 4.127 3.5 9.842 5.24 17.144 5.24 11.366 0 20.033-3.24 26.001-9.71 6.032-6.48 9.08-15.3 9.144-26.48z"/></g></svg>