<svg xmlns="http://www.w3.org/2000/svg" width="614" height="80"><g fill="#2C3233" fill-rule="nonzero"><path d="M0 19.917c2.663.092 5.232.274 7.8.64V7.803h51.4v12.572c2.568-.735 5.137-1.377 7.8-1.836V0H0zm.094 23.77v7.801c13.768.641 26.25 6.426 35.518 15.512h10.464C35.152 53.324 18.633 44.42.094 43.688"/><path d="M0 28.347v7.548c22.978.81 43.196 12.492 55.327 30.015H67v-8.087a52 52 0 0 0-6.16 2.517 80 80 0 0 0-4.87-6.11 54.6 54.6 0 0 1 11.028-4.226v-7.818a65.5 65.5 0 0 0-16.634 6.381 63 63 0 0 0-6.065-4.942 68.9 68.9 0 0 1 22.609-8.897V27a76.4 76.4 0 0 0-29.594 12.041C26.286 32.571 13.602 28.708 0 28.347M0 66h23.896C17.003 61.418 8.822 58.542 0 58.093zM122.575 45.92c3.37-1.555 4.826-5.117 4.826-8.406 0-3.381-1.639-6.67-4.552-8.59-2.64-1.734-5.917-2.192-9.102-2.192H98v39.747h15.747c3.824 0 7.466-.367 10.56-2.651 2.82-2.193 4.005-5.39 4.005-8.863-.091-3.837-2.004-7.31-5.735-9.045zm-17.474-12.977h8.828c3.277 0 6.099 1.19 6.099 5.027 0 3.748-2.73 4.934-5.918 4.934h-9.01v-9.961m8.92 27.048h-8.829V48.934h9.103c3.822 0 6.735 1.554 6.735 5.756-.09 4.021-3.733 5.3-7.01 5.3m26.303-8.225c0-4.658 2.55-8.222 7.464-8.222.818 0 1.638.091 2.367.275v-6.672a18 18 0 0 0-2.184-.182c-3.37 0-6.827 1.37-8.193 4.75l-.636-4.385h-5.917v29.055h7.01V51.766zm20.749-25.674h-7.465v7.218h7.466v-7.216zm-.086 11.238h-7.097v29.053h7.1V37.33zm25.392 25.858.456 3.197h6.007V26h-6.918v13.34c-1.184-1.553-3.912-2.741-7.554-2.741-2.913 0-5.28.915-7.1 2.376-3.458 2.832-5.188 7.31-5.188 12.976 0 5.482 1.639 9.868 5.098 12.698 1.819 1.463 4.186 2.468 7.099 2.468 3.185-.092 6.372-1.28 8.102-3.927zm-6.734-2.007c-2.184 0-3.642-1.007-4.643-2.285-1.457-1.92-1.82-4.568-1.82-7.128 0-2.557.363-5.115 1.82-7.036 1.001-1.276 2.548-2.283 4.643-2.283 5.46 0 6.553 5.117 6.553 9.32s-1.092 9.412-6.553 9.412m18.116 10.046c0 2.743 1.275 4.844 3.548 6.399 3.005 2.1 6.736 2.374 10.286 2.374 6.464 0 14.017-2.101 14.017-9.684 0-2.834-1-5.302-3.55-7.036-2.73-1.92-6.553-1.92-9.375-1.92h-4.914c-1.456 0-3.185-.365-3.185-2.1 0-.914.818-1.645 1.455-2.102 1.488.545 3.06.823 4.643.821 6.28 0 11.833-3.927 11.833-10.598 0-1.918-.546-3.654-1.55-5.299.458-1.371 1.913-1.828 3.551-1.828.183 0 .364.092.546.092v-5.392c-.454-.092-1.455-.092-1.91-.092-2.458 0-4.642 1.097-5.917 3.656-1.913-1.096-4.186-1.828-6.553-1.828-6.555 0-11.833 3.748-11.833 10.69 0 2.925 1.092 5.393 2.913 7.129-2.367 1.461-3.46 3.379-3.46 5.846 0 1.92 1.093 3.93 2.914 4.934-2.276 1.096-3.46 3.38-3.46 5.94zm12.925-29.42c3.185 0 5.097 2.285 5.097 5.39 0 3.108-1.912 5.392-5.097 5.392-3.187 0-5.098-2.192-5.098-5.39 0-3.199 1.91-5.392 5.098-5.392m-4.188 25.037h5.46c2.642 0 6.919 0 6.919 3.562 0 3.837-4.915 4.02-7.645 4.02s-7.282-.364-7.282-4.02c0-1.826 1.092-3.106 2.548-3.562m43.418-3.837c1.094-1.372 2.275-3.656 2.458-5.392h-6.644c-.274 1.096-.82 1.828-1.366 2.467-1.001 1.005-2.185 1.37-4.278 1.37-1.912 0-3.276-.821-4.277-1.826-1.366-1.372-2.184-3.473-2.095-5.665h19.389c0-.64.091-1.92.091-1.92.09-3.654-.365-6.945-2.55-10.142-2.366-3.654-6.28-5.39-10.558-5.39-3.913 0-7.099 1.461-9.283 3.654-2.822 2.832-4.188 7.036-4.188 11.605 0 4.75 1.547 8.863 4.46 11.601 2.276 2.195 5.189 3.567 9.103 3.567 3.64.18 7.281-1.007 9.738-3.93m-14.836-18.64c1.001-1.372 2.73-2.193 4.824-2.193 2.003 0 3.459.638 4.37 1.645 1.092 1.188 1.728 2.922 1.82 5.117h-12.56c.09-1.92.546-3.29 1.546-4.57m45.69 12.975c0-4.57-3.368-7.493-7.92-8.225a83 83 0 0 0-6.189-.821c-1.549-.184-3.367-.824-3.367-2.925 0-1.554 1-2.559 2.184-3.107 1.092-.457 2.001-.457 3.002-.457 1.458 0 2.913.548 3.825 1.372.637.731 1.183 1.644 1.183 2.74h6.644c0-2.1-1.002-4.293-2.55-5.94-2.092-2.282-5.643-3.378-9.102-3.378-3.64 0-6.644 1.096-8.828 2.922-1.73 1.555-2.913 3.564-2.913 6.578 0 3.656 2.64 6.945 6.646 7.768 2.548.548 5.46.732 8.008 1.096 1.821.274 2.913 1.372 2.913 3.106 0 3.2-3.55 3.656-5.915 3.656-2.004 0-3.279-.365-4.37-1.28-.91-.73-1.548-2.1-1.548-3.38h-6.552c0 2.74 1.364 5.116 3.093 6.76 2.367 2.285 5.644 3.382 9.377 3.382 3.914 0 7.554-1.005 9.92-3.381 1.456-1.555 2.459-3.654 2.459-6.486m33.402 8.679v-5.849c-1.91.183-3.094.275-4.552.275-2.184 0-3.276-.915-3.276-3.2v-14.16h7.282V37.33h-7.282V29.93h-7.008v7.401h-5.097v5.755h5.278v14.803c0 5.573 2.913 8.954 8.74 8.954a30.8 30.8 0 0 0 5.915-.821m15.931 1.096c4.369 0 8.102-2.101 10.104-4.569 2.184-2.74 3.367-5.846 3.367-10.782 0-4.933-1.183-8.04-3.367-10.78-2.002-2.468-5.735-4.569-10.104-4.569s-8.1 2.101-10.103 4.569c-2.184 2.74-3.368 5.847-3.368 10.782s1.184 8.04 3.368 10.78c1.912 2.468 5.643 4.569 10.103 4.569m-4.46-22.569c.91-1.004 2.548-1.826 4.369-1.826 1.912 0 3.459.822 4.368 1.826 1.64 1.828 2.095 4.569 2.095 7.31s-.365 5.482-2.095 7.31c-.909 1.006-2.547 1.827-4.368 1.827-1.91 0-3.46-.823-4.369-1.828-1.638-1.825-2.093-4.568-2.093-7.31 0-2.74.455-5.48 2.093-7.309m47.519-17.816h-15.473v39.651h7.099v-14.16h8.374c9.102 0 13.925-5.117 13.925-12.794 0-7.582-4.823-12.7-13.925-12.7zm-.272 19.096h-8.102V33.035h8.102c4.823 0 7.007 2.649 7.007 6.394-.091 3.837-2.184 6.397-7.007 6.397zm24.388-4.112-.637-4.386h-5.916v29.055h7.008V51.766c0-4.658 2.55-8.222 7.464-8.222.818 0 1.638.091 2.367.275v-6.672a18 18 0 0 0-2.186-.182c-3.368 0-6.825 1.37-8.1 4.75m25.946-5.115c-4.37 0-8.102 2.1-10.104 4.566-2.184 2.743-3.367 5.849-3.367 10.784 0 4.934 1.183 8.04 3.367 10.78 2.002 2.468 5.733 4.57 10.104 4.57 4.368 0 8.1-2.102 10.103-4.57 2.184-2.74 3.368-5.846 3.368-10.781 0-4.934-1.184-8.04-3.368-10.783-2.004-2.465-5.735-4.566-10.103-4.566m4.368 22.568c-.911 1.005-2.55 1.826-4.368 1.826-1.913 0-3.46-.82-4.37-1.828-1.64-1.825-2.094-4.566-2.094-7.31 0-2.74.364-5.48 2.093-7.309.912-1.004 2.55-1.826 4.37-1.826 1.91 0 3.458.822 4.37 1.826 1.637 1.828 2.092 4.569 2.092 7.31 0 2.743-.455 5.482-2.093 7.311m29.123-9.96a83 83 0 0 0-6.19-.822c-1.547-.183-3.367-.823-3.367-2.924 0-1.555 1.002-2.56 2.186-3.108 1.092-.456 2.001-.456 3.002-.456 1.458 0 2.913.548 3.823 1.371.637.732 1.183 1.645 1.183 2.741h6.645c0-2.1-1.001-4.293-2.548-5.94-2.093-2.284-5.644-3.38-9.103-3.38-3.64 0-6.644 1.096-8.828 2.924-1.73 1.554-2.913 3.564-2.913 6.578 0 3.656 2.639 6.945 6.644 7.768 2.55.548 5.463.73 8.01 1.096 1.821.273 2.913 1.37 2.913 3.106 0 3.2-3.55 3.656-5.917 3.656-2.002 0-3.277-.367-4.369-1.28-.91-.732-1.547-2.101-1.547-3.38h-6.552c0 2.74 1.364 5.116 3.093 6.76 2.367 2.285 5.644 3.381 9.375 3.381 3.914 0 7.556-1.004 9.923-3.38 1.546-1.555 2.547-3.565 2.547-6.397-.091-4.75-3.459-7.583-8.01-8.312zm34.583-10.143a10.86 10.86 0 0 0-7.007-2.465c-3.187 0-6.373 1.186-8.102 3.837l-.455-3.2h-6.007v40.205h7.008V64.286c1.366 1.643 4.096 2.83 7.556 2.83 2.913 0 5.278-.912 7.099-2.375 3.459-2.83 5.188-7.31 5.188-12.973-.091-5.482-1.82-9.777-5.28-12.702m-3.731 19.92c-1 1.28-2.55 2.284-4.643 2.284-5.46 0-6.552-5.117-6.552-9.32 0-4.202 1.092-9.411 6.552-9.411 2.185 0 3.642 1.005 4.643 2.284 1.456 1.92 1.821 4.569 1.821 7.127 0 2.467-.365 5.116-1.821 7.036m25.85-22.385c-3.914 0-7.099 1.46-9.283 3.653-2.822 2.833-4.188 7.037-4.188 11.604 0 4.752 1.549 8.864 4.462 11.605 2.274 2.193 5.187 3.562 9.1 3.562 3.642 0 7.282-1.186 9.74-4.11 1.093-1.371 2.276-3.656 2.459-5.392h-6.646c-.272 1.096-.819 1.828-1.365 2.468-1 1.004-2.184 1.371-4.279 1.371-1.91 0-3.276-.823-4.277-1.828-1.364-1.371-2.184-3.472-2.093-5.665h19.387c0-.64.09-1.92.09-1.92.092-3.653-.362-6.942-2.547-10.142-2.367-3.47-6.28-5.206-10.56-5.206m-6.461 12.335c.091-1.92.546-3.2 1.547-4.57s2.73-2.192 4.825-2.192c2.001 0 3.457.638 4.368 1.645 1.093 1.188 1.73 2.922 1.821 5.117zm31.13-7.22-.638-4.386h-5.915v29.055h7.008V51.766c0-4.658 2.55-8.222 7.464-8.222.818 0 1.638.091 2.367.275v-6.672a18 18 0 0 0-2.184-.182c-3.368 0-6.827 1.37-8.102 4.75m21.116-4.386h-7.099v29.053h7.099zm.093-11.238h-7.464v7.218h7.464v-7.218M575.04 57.25V43.087h7.284V37.33h-7.284V29.93h-7.007v7.401h-5.28v5.757h5.28v14.8c0 5.574 2.913 8.955 8.737 8.955 2.095 0 4.005-.273 5.917-.821v-5.849c-1.912.183-3.096.275-4.551.275-2.093 0-3.096-1.004-3.096-3.197m31.86-19.92-7.283 21.014-7.553-21.014h-7.645l11.467 29.055-1.638 4.113c-.729 1.734-2.093 2.192-3.368 2.192-1.547 0-2.093-.183-3.914-.548v5.849c1.547.364 3.096.73 5.37.73 5.097 0 7.464-3.473 8.922-7.31L614 37.33z"/></g></svg>
