<svg xmlns="http://www.w3.org/2000/svg" width="310" height="110" fill="none"><g fill="#efebea" clip-path="url(#a)"><path d="m160.523 104.665-.486-6.536.618.486a8 8 0 0 1-1.899 3.533q-1.413 1.545-3.533 2.385-2.076.839-4.505.839-4.372 0-7.729-2.12-3.313-2.164-5.123-5.874t-1.811-8.347q0-4.683 1.811-8.392 1.854-3.754 5.255-5.874 3.402-2.164 7.906-2.164 5.256 0 8.701 2.915 3.489 2.87 4.593 7.95l-6.492.309q-.663-2.828-2.429-4.329-1.723-1.546-4.461-1.546-2.827 0-4.726 1.458-1.855 1.413-2.783 3.93-.927 2.519-.927 5.743 0 3.18.927 5.653.928 2.473 2.827 3.93 1.9 1.414 4.682 1.414 2.076 0 3.621-.84a6.4 6.4 0 0 0 2.43-2.428q.882-1.546 1.148-3.622h-7.243v-4.726h13.514v16.253zM168.703 92.961q0-3.666 1.457-6.448 1.502-2.782 4.152-4.284 2.694-1.502 6.227-1.502 3.18 0 5.698 1.458 2.562 1.413 4.019 4.284 1.457 2.826 1.502 6.801v1.325h-16.607q.177 2.739 1.59 4.329t3.798 1.59q1.503 0 2.783-.84a4.8 4.8 0 0 0 1.855-2.252l6.272.442q-1.06 3.356-4.064 5.344-2.958 1.987-6.846 1.987-3.533 0-6.227-1.501-2.65-1.547-4.152-4.284-1.457-2.783-1.457-6.449m16.783-2.252q-.309-2.694-1.678-3.975-1.326-1.325-3.269-1.325-2.252 0-3.665 1.413-1.37 1.37-1.679 3.887zM201.685 81.257l.265 6.713-.795-.309q.486-3.621 2.518-5.255 2.076-1.68 5.167-1.679 3.798 0 5.918 2.385t2.12 6.493v15.06h-6.139V91.592q0-3.047-.883-4.505-.84-1.457-2.959-1.457-2.209 0-3.445 1.546-1.193 1.545-1.193 4.416v13.073h-6.139V81.257zM232.9 105.195q-3.534 0-6.184-1.501-2.65-1.547-4.151-4.284-1.458-2.783-1.458-6.449 0-3.71 1.458-6.448 1.502-2.782 4.151-4.284t6.184-1.502q3.532 0 6.183 1.502 2.694 1.5 4.152 4.284 1.501 2.738 1.501 6.448 0 3.666-1.501 6.449a10.6 10.6 0 0 1-4.152 4.284q-2.65 1.501-6.183 1.501m0-4.858q2.65 0 4.063-1.943t1.413-5.433q0-3.532-1.413-5.476T232.9 85.54q-2.562 0-4.019 1.944-1.414 1.942-1.414 5.476t1.414 5.477q1.457 1.899 4.019 1.899M254.65 81.257l.133 3.71q.884-2.032 2.561-3.136 1.723-1.104 4.02-1.104 2.429 0 4.151 1.281 1.767 1.237 2.518 3.533.839-2.385 2.605-3.577 1.812-1.237 4.285-1.237 2.385 0 4.107 1.016 1.767 1.016 2.694 3.003.928 1.988.928 4.859v15.06h-6.139V91.592q0-2.96-.884-4.46-.883-1.502-2.65-1.502-1.413 0-2.385.706-.971.663-1.501 2.032-.486 1.325-.486 3.224v13.073h-5.521V91.592q0-2.96-.883-4.46-.884-1.502-2.606-1.502-1.413 0-2.385.706-.971.663-1.502 2.032-.486 1.325-.486 3.224v13.073h-6.139V81.257zM286.882 92.961q0-3.666 1.458-6.448 1.502-2.782 4.151-4.284 2.695-1.502 6.228-1.502 3.18 0 5.697 1.458 2.562 1.413 4.02 4.284 1.457 2.826 1.501 6.801v1.325h-16.606q.175 2.739 1.59 4.329 1.413 1.59 3.798 1.59 1.502 0 2.782-.84a4.8 4.8 0 0 0 1.855-2.252l6.272.442q-1.06 3.356-4.063 5.344-2.96 1.987-6.846 1.987-3.533 0-6.228-1.501-2.65-1.547-4.151-4.284-1.458-2.783-1.458-6.449m16.784-2.252q-.31-2.694-1.679-3.975-1.325-1.325-3.268-1.325-2.253 0-3.666 1.413-1.37 1.37-1.678 3.887zM158.965 27.5v5.3h-15.238v7.684h14.708v5.256h-14.708v7.773h15.591v5.345H137.5V27.5zM163.565 42.649q.707-3.71 3.445-5.698 2.738-2.031 7.244-2.032 5.167 0 7.817 2.562 2.694 2.562 2.694 7.553v7.685q0 1.016.354 1.413.398.397 1.104.397h.883v4.329l-1.237.044h-.441q-2.12.132-3.843-.53-1.722-.707-2.031-3.092-.928 1.855-2.96 3.003-1.987 1.105-4.99 1.105-3.666 0-6.051-1.811-2.385-1.855-2.385-4.903 0-2.12 1.016-3.489 1.06-1.37 2.959-2.164 1.9-.84 4.946-1.413l6.493-1.325q-.045-2.65-1.104-3.887-1.06-1.28-3.269-1.28-1.766 0-2.915.97-1.104.973-1.501 2.872zm5.963 9.849q0 1.192.971 1.987 1.016.75 2.915.751 1.546 0 2.695-.75 1.192-.752 1.855-2.253.706-1.501.706-3.666v-.31l-4.151.752q-.31.044-.619.132-1.545.266-2.429.618-.884.309-1.413.972-.53.662-.53 1.767M197.019 35.45l.177 6.757-.442-.22q.486-3.314 1.943-4.903 1.458-1.635 4.064-1.635h2.164v4.638h-2.209q-1.854 0-3.047.618a3.87 3.87 0 0 0-1.767 1.855q-.574 1.237-.574 3.136v13.162h-6.139V35.45zM218.051 30.105v21.333q0 1.325.663 2.031.662.707 1.943.707h3.533v4.682h-4.726q-3.753 0-5.697-1.855-1.899-1.9-1.899-5.565V30.105zm6.139 5.345v4.637h-16.076v-4.638zM234.723 27.5v13.338l-.883.397q.573-3.312 2.605-4.814 2.032-1.501 5.035-1.501 3.623 0 5.742 2.429 2.12 2.429 2.12 6.448v15.06h-6.139V45.962q0-3.047-.884-4.505-.882-1.458-2.959-1.457-2.208 0-3.445 1.545-1.192 1.546-1.192 4.417v12.897h-6.139V27.5zM106.568 74.253C98.765 95.133 78.634 110 55.031 110c-23.604 0-43.735-14.867-51.538-35.747h22.73c1.556 3.152 3.8 6.051 6.646 8.523 5.88 5.106 13.854 7.974 22.168 7.974s16.289-2.868 22.168-7.974c2.847-2.472 5.09-5.37 6.646-8.523z"/><path fill-rule="evenodd" d="M110 54.996q0 1.665-.097 3.304H.098A56 56 0 0 1 0 54.996C0 24.622 24.624 0 55 0s55 24.622 55 54.996M75.621 25.15c5.467 4.486 8.538 10.571 8.538 16.916h-58.3c0-6.345 3.07-12.43 8.538-16.916 5.466-4.487 12.88-7.007 20.612-7.007 7.73 0 15.145 2.52 20.612 7.007" clip-rule="evenodd"/></g><defs><clipPath id="a"><path fill="#fff" d="M0 0h310v110H0z"/></clipPath></defs></svg>